<?xml version="1.0" encoding="UTF-8" standalone="no"?>
<svg
   xmlns:dc="http://purl.org/dc/elements/1.1/"
   xmlns:cc="http://creativecommons.org/ns#"
   xmlns:rdf="http://www.w3.org/1999/02/22-rdf-syntax-ns#"
   xmlns:svg="http://www.w3.org/2000/svg"
   xmlns="http://www.w3.org/2000/svg"
   xmlns:sodipodi="http://sodipodi.sourceforge.net/DTD/sodipodi-0.dtd"
   xmlns:inkscape="http://www.inkscape.org/namespaces/inkscape"
   inkscape:version="1.0 (4035a4fb49, 2020-05-01)"
   sodipodi:docname="grass.svg"
   id="svg58"
   version="1.1"
   viewBox="0 0 173.416 13.314384"
   height="50.321999"
   width="655.42902">
  <g
     transform="translate(-1.6258036,-11.850613)"
     id="g997">
    <g
       id="g26"
       style="stroke-width:1.26971"
       transform="matrix(1.0798243,0,0,1,-10.082885,1.2532984)">
      <path
         id="path2"
         transform="matrix(1,0,0,0.57443,-15.297,-22.463)"
         d="m 143.565,84.836 0.009,-0.047 0.007,0.062 -0.017,-0.015"
         style="fill:#419d3a;fill-opacity:1;fill-rule:nonzero;stroke:none;stroke-width:0.0447927" />
      <path
         id="path4"
         transform="matrix(1,0,0,0.57443,-15.297,-22.463)"
         d="m 185.937,84.85 c 0.026,-0.643 -0.06,-1.298 -0.156,-1.947 0.114,0.65 0.246,1.3 0.394,1.948 h 1.083 a 21.764,21.764 0 0 0 -0.075,-1.79 c 0.185,-0.03 0.389,-0.134 0.397,-0.228 0.291,-3.274 0.045,-6.55 0.035,-9.826 -0.005,-1.574 -0.062,-3.148 -0.087,-4.723 -0.023,-1.464 0.13,-2.944 0.038,-4.405 -0.002,-0.035 -0.097,-0.005 -0.1,0.019 -0.202,1.425 -0.674,2.843 -0.869,4.273 -0.227,1.66 -0.308,3.325 -0.346,4.99 a 57.63,57.63 0 0 0 -0.007,2.192 c -0.2,-3.011 -0.114,-6.021 -0.274,-9.03 -0.002,-0.04 -0.114,-0.008 -0.117,0.02 -0.247,3.013 -0.751,6.004 -0.724,9.025 0.016,1.69 0.109,3.387 0.3,5.08 -0.189,-1.074 -0.44,-2.149 -0.598,-3.224 -0.202,-1.365 -0.475,-2.728 -0.644,-4.096 -0.153,-1.23 -0.005,-2.563 -0.396,-3.774 -0.01,-0.032 -0.084,-0.001 -0.084,0.021 0.016,0.63 -0.248,1.289 -0.343,1.918 a 55.353,55.353 0 0 0 -0.254,2.032 18.53,18.53 0 0 0 -0.006,4.022 c 0.08,0.744 0.153,1.495 0.243,2.247 -0.3,-1.37 -0.546,-2.738 -0.683,-4.122 -0.007,-0.07 -0.195,-0.012 -0.201,0.036 l -0.033,0.223 c 0.038,-1.92 0.22,-3.84 0.532,-5.751 0.007,-0.042 -0.09,-0.017 -0.1,0.011 a 46.402,46.402 0 0 0 -1.82,7.184 c -0.006,-1.48 0.103,-2.953 0.185,-4.44 0.003,-0.048 -0.11,-0.022 -0.118,0.013 -0.42,2.106 -0.984,4.172 -0.954,6.3 0.026,1.938 0.191,3.895 0.846,5.803 h 4.936"
         style="fill:#63c338;fill-opacity:1;fill-rule:nonzero;stroke:none;stroke-width:0.0447927" />
      <path
         id="path6"
         transform="matrix(1,0,0,0.57443,-15.297,-22.463)"
         d="m 127.514,80.58 -0.063,-0.001 c -0.003,-0.21 -0.01,-0.42 -0.013,-0.63 0.022,0.21 0.047,0.421 0.076,0.631 z m 8.108,-10.39 c 0.372,-1.363 0.76,-2.725 1.153,-4.086 0.31,0.352 0.611,0.708 0.901,1.067 -0.216,0.383 -0.425,0.767 -0.619,1.156 -0.965,1.932 -1.66,3.913 -2.244,5.89 -0.492,1.67 -0.81,3.363 -1.065,5.051 a 2.912,2.912 0 0 0 -0.163,-0.361 c 0.779,-2.897 1.248,-5.83 2.037,-8.717 z m -0.74,-6.139 0.227,0.235 c 0.192,0.203 0.382,0.406 0.571,0.61 -0.062,0.117 -0.126,0.233 -0.187,0.35 a 36.413,36.413 0 0 0 -1.735,3.887 74.118,74.118 0 0 1 1.123,-5.082 z m 3.277,3.717 0.216,0.27 c -0.25,0.45 -0.492,0.901 -0.721,1.354 0.08,-0.276 0.157,-0.551 0.239,-0.827 0.08,-0.267 0.17,-0.532 0.266,-0.797 z m 1.02,-2.32 c 0.15,0.176 0.294,0.353 0.435,0.531 -0.173,0.254 -0.337,0.51 -0.494,0.768 l -0.393,-0.359 c 0.143,-0.314 0.296,-0.628 0.452,-0.94 z m 1.349,-2.55 c 0.23,0.32 0.453,0.64 0.666,0.962 -0.233,0.32 -0.427,0.654 -0.667,0.929 -0.28,0.32 -0.531,0.648 -0.766,0.98 -0.164,-0.162 -0.33,-0.323 -0.5,-0.482 0.403,-0.797 0.837,-1.59 1.267,-2.388 z m 0.892,1.31 c 0.235,0.365 0.463,0.73 0.68,1.098 a 42.926,42.926 0 0 0 -1.03,1.846 c -0.274,-0.31 -0.556,-0.62 -0.85,-0.924 0.107,-0.208 0.217,-0.416 0.334,-0.623 0.254,-0.452 0.55,-0.894 0.835,-1.34 l 0.031,-0.056 z m -0.841,3.907 a 60.238,60.238 0 0 0 -0.81,-0.767 L 139.7,67.284 c 0.114,-0.244 0.232,-0.488 0.355,-0.732 0.267,0.36 0.52,0.722 0.76,1.087 -0.08,0.158 -0.158,0.317 -0.236,0.476 z m -2.274,5.385 a 43.56,43.56 0 0 0 -1.113,3.577 1.22,1.22 0 0 0 -0.316,0.011 c 0.18,-1.09 0.377,-2.18 0.625,-3.267 0.382,-1.68 0.85,-3.339 1.523,-4.989 l 0.774,0.94 a 51.559,51.559 0 0 0 -1.493,3.728 z m 4.557,-6.828 0.102,0.192 c -0.037,0.052 -0.075,0.103 -0.11,0.155 -0.06,0.087 -0.115,0.175 -0.173,0.262 0.058,-0.203 0.12,-0.406 0.18,-0.609 z m 0.707,1.397 c 0.048,0.1 0.098,0.2 0.145,0.3 -0.236,0.39 -0.465,0.783 -0.677,1.178 0.18,-0.492 0.355,-0.985 0.532,-1.478 z m 1.488,3.333 0.028,0.067 c -0.077,0.186 -0.153,0.373 -0.226,0.56 0.064,-0.21 0.13,-0.419 0.198,-0.627 z m 1.313,-3.474 c 0.062,0.201 0.126,0.402 0.19,0.603 l -0.53,0.985 -0.192,-0.306 c 0.167,-0.428 0.345,-0.855 0.532,-1.282 z m 0.522,1.648 0.09,0.282 c -0.113,0.226 -0.223,0.452 -0.331,0.678 l -0.006,-0.01 c 0.07,-0.318 0.156,-0.634 0.248,-0.95 z m 0.155,-3.093 c 0.312,-0.623 0.66,-1.24 1.002,-1.858 0.311,0.561 0.572,1.132 0.799,1.709 -0.39,0.722 -0.783,1.444 -1.165,2.166 a 30.39,30.39 0 0 0 -0.297,-0.543 c 0.183,-0.605 0.347,-1.212 0.444,-1.822 0.01,-0.063 -0.135,-0.025 -0.15,0.017 -0.161,0.444 -0.358,0.884 -0.573,1.322 -0.059,-0.098 -0.115,-0.198 -0.176,-0.296 -0.041,-0.066 -0.081,-0.134 -0.122,-0.203 0.078,-0.164 0.157,-0.328 0.238,-0.492 z m 1.572,-2.907 c 0.016,-0.03 0.034,-0.058 0.05,-0.087 0.115,0.435 0.224,0.871 0.322,1.309 l 0.163,0.738 c -0.272,-0.434 -0.57,-0.863 -0.898,-1.285 0.123,-0.224 0.246,-0.45 0.363,-0.675 z m 1.449,7.664 0.002,-0.018 c 0.135,0.902 0.242,1.8 0.35,2.681 0.092,0.74 0.193,1.48 0.299,2.22 -0.109,-0.416 -0.22,-0.832 -0.341,-1.247 a 28.201,28.201 0 0 0 -0.484,-1.502 c 0.05,-0.711 0.105,-1.422 0.173,-2.134 z m 1.157,-6.765 c 0.77,2.732 1.007,5.46 1.097,8.22 a 80.592,80.592 0 0 0 -0.38,-2.26 c -0.274,-1.489 -0.596,-2.979 -1.052,-4.455 a 61.12,61.12 0 0 1 0.335,-1.505 z m 8.483,6.044 c -0.034,-0.412 -0.055,-0.828 -0.085,-1.245 0.26,1.154 0.476,2.312 0.712,3.463 0.29,1.419 0.543,2.84 0.77,4.262 -0.246,-0.225 -0.575,-0.304 -1.009,-0.043 a 1.945,1.945 0 0 0 -0.578,0.522 c 0.04,-0.909 0.077,-1.815 0.145,-2.714 0.108,-1.416 0.163,-2.83 0.045,-4.245 z m 22.775,-7.466 -0.38,0.477 a 1.4,1.4 0 0 1 0.38,-0.477 z M 105.131,73.44 c 0.765,2.337 1.115,4.718 1.5,7.082 0.098,0.602 0.162,1.225 0.234,1.855 a 54.718,54.718 0 0 1 -0.104,2.106 c -0.052,0.122 -0.1,0.245 -0.146,0.368 h 77.743 a 4.185,4.185 0 0 0 0.539,-2.436 l -0.004,-0.05 c 1.126,-3.645 1.091,-7.335 1.448,-11.021 0.255,-2.639 0.77,-5.281 1.438,-7.905 0.081,-0.293 0.162,-0.585 0.248,-0.877 l -0.011,-0.03 c 0.22,-0.818 0.45,-1.634 0.696,-2.447 0.008,-0.025 -0.057,-0.015 -0.065,0.002 -1.164,2.48 -2.485,4.996 -3.475,7.533 a 44.62,44.62 0 0 0 -0.592,1.193 c 0.327,-1.487 0.962,-2.95 1.198,-4.438 0.01,-0.063 -0.136,-0.024 -0.151,0.017 -0.6,1.66 -1.694,3.268 -2.422,4.913 -0.142,0.32 -0.272,0.642 -0.398,0.964 0.574,-1.872 1.27,-3.711 2.188,-5.545 0.487,-0.976 1.064,-1.936 1.572,-2.908 0.452,-0.865 1.211,-1.62 1.802,-2.45 0.035,-0.048 -0.082,-0.047 -0.116,-0.014 -0.829,0.797 -1.842,1.555 -2.726,2.337 -0.96,0.85 -1.67,1.768 -2.365,2.692 a 26.713,26.713 0 0 0 -2.178,3.407 c 0.28,-0.767 0.559,-1.533 0.828,-2.3 0.514,-1.46 1.44,-2.793 2.21,-4.206 0.041,-0.077 -0.134,-0.06 -0.173,-0.007 a 36.87,36.87 0 0 1 -1.302,1.698 l -0.022,0.005 c -0.841,0.433 -1.141,1.248 -1.632,1.81 l -0.073,0.087 c 0.642,-2.125 1.487,-4.223 2.861,-6.231 0.07,-0.103 -0.178,-0.08 -0.235,-0.009 a 41.785,41.785 0 0 0 -4.872,7.625 28.75,28.75 0 0 0 -1.151,2.067 c -0.965,1.932 -1.66,3.913 -2.244,5.89 -0.172,0.583 -0.32,1.17 -0.455,1.756 l -0.07,0.011 c 0.426,-1.936 0.81,-3.875 1.333,-5.794 a 311.87,311.87 0 0 1 1.588,-5.586 c 0.28,-0.955 0.58,-1.903 0.918,-2.852 0.222,-0.622 0.753,-1.402 0.563,-2.038 -0.012,-0.04 -0.101,-0.002 -0.1,0.025 0.014,0.355 -0.357,0.838 -0.524,1.182 -0.234,0.484 -0.542,0.953 -0.86,1.421 a 28.935,28.935 0 0 0 -1.713,2.904 36.413,36.413 0 0 0 -1.735,3.887 73.362,73.362 0 0 1 1.39,-6.1 c 0.007,-0.03 -0.072,-0.018 -0.081,0.004 -1.158,2.607 -2.299,5.195 -3.131,7.827 a 64.384,64.384 0 0 1 1.782,-6.492 c 0.025,-0.074 -0.167,-0.041 -0.195,0.008 a 47.528,47.528 0 0 0 -2.51,5.202 c 0.453,-2.373 1.09,-4.749 2.319,-7.007 0.042,-0.077 -0.133,-0.059 -0.173,-0.006 a 22.476,22.476 0 0 0 -2.747,4.688 c 0.059,-0.307 0.117,-0.614 0.179,-0.92 0.358,-1.781 1.063,-3.582 1.123,-5.375 0.002,-0.041 -0.092,-0.017 -0.1,0.012 -0.496,1.763 -1.629,3.47 -2.309,5.215 a 33.003,33.003 0 0 0 -1.2,3.69 c 0.28,-1.83 0.653,-3.65 1.149,-5.455 0.022,-0.082 -0.181,-0.034 -0.202,0.023 -1.184,3.263 -1.804,6.565 -2.27,9.887 -0.177,1.26 -0.246,2.524 -0.29,3.788 0.001,-1.864 -0.038,-3.73 0.02,-5.595 0.06,-1.934 0.181,-3.87 0.362,-5.803 0.177,-1.906 0.65,-3.808 0.773,-5.713 0.004,-0.062 -0.14,-0.027 -0.15,0.017 -0.447,1.948 -1.236,3.877 -1.746,5.823 -0.444,1.69 -0.77,3.385 -0.93,5.09 -0.104,-1.772 -0.28,-3.541 -0.371,-5.312 a 39.603,39.603 0 0 1 -0.037,-3.053 c 0.022,-0.861 0.283,-1.71 0.25,-2.573 -0.002,-0.046 -0.13,-0.008 -0.135,0.024 -0.11,0.88 -0.488,1.737 -0.68,2.612 a 96.05,96.05 0 0 0 -0.581,2.92 c -0.352,1.88 -0.502,3.769 -0.528,5.66 -0.026,1.86 0.04,3.718 0.256,5.569 a 0.997,0.997 0 0 0 -0.255,0.09 1.1,1.1 0 0 0 -0.157,0.113 c -0.136,-1.935 -0.28,-3.87 -0.432,-5.803 -0.28,-3.578 -0.852,-7.142 -1.217,-10.717 -0.004,-0.041 -0.115,-0.007 -0.117,0.021 a 69.202,69.202 0 0 0 -0.287,7.885 c -0.33,-1.14 -0.717,-2.276 -1.23,-3.378 a 16.83,16.83 0 0 0 -1.363,-2.403 c -0.468,-0.684 -1.011,-1.452 -1.958,-1.975 -0.035,-0.02 -0.094,0.02 -0.067,0.04 0.875,0.64 1.273,1.592 1.663,2.358 0.46,0.904 0.74,1.848 1.03,2.773 0.066,0.215 0.129,0.43 0.19,0.646 0.129,1.06 -0.029,2.14 -0.09,3.197 -0.083,1.446 -0.31,2.884 -0.496,4.327 -0.17,1.315 -0.39,2.655 -0.528,3.998 l 0.001,-0.087 c 0.04,-1.786 0.187,-3.564 0.103,-5.352 -0.154,-3.288 -0.393,-6.843 -2.43,-9.965 -0.028,-0.043 -0.151,0.005 -0.133,0.043 1.604,3.365 1.135,7.042 1.068,10.49 -0.027,1.416 -0.145,2.83 -0.26,4.244 0,-0.717 -0.008,-1.435 -0.036,-2.153 -0.07,-1.784 -0.367,-3.57 -0.71,-5.343 -0.31,-1.598 -0.488,-3.272 -1.36,-4.814 -0.02,-0.039 -0.13,0.004 -0.116,0.037 0.656,1.596 0.597,3.29 0.695,4.918 0.039,0.64 0.053,1.28 0.055,1.919 -0.159,-1.06 -0.335,-2.117 -0.454,-3.17 -0.36,-3.187 -0.894,-6.34 -1.963,-9.478 -0.007,-0.021 -0.07,0 -0.068,0.017 0.235,2.648 0.396,5.3 0.604,7.948 -0.46,-1.474 -1,-2.943 -1.66,-4.394 0.318,-1.285 0.671,-2.565 1.056,-3.839 0.007,-0.025 -0.057,-0.014 -0.065,0.003 -0.457,0.973 -0.939,1.953 -1.416,2.938 -0.057,-0.117 -0.113,-0.234 -0.172,-0.35 -0.029,-0.056 -0.185,0.006 -0.168,0.052 0.072,0.192 0.14,0.383 0.207,0.575 -0.176,0.363 -0.35,0.726 -0.521,1.09 a 35.878,35.878 0 0 0 -0.811,-1.981 c 0.313,-0.391 0.64,-0.778 0.929,-1.182 0.034,-0.05 -0.082,-0.048 -0.117,-0.015 -0.303,0.292 -0.63,0.578 -0.967,0.862 -0.51,-1.074 -1.134,-2.136 -1.982,-3.084 -0.023,-0.026 -0.096,0.003 -0.083,0.027 0.542,0.971 0.68,1.996 0.963,2.998 0.075,0.263 0.148,0.526 0.221,0.79 -0.297,0.245 -0.592,0.492 -0.873,0.74 -0.27,-0.302 -0.556,-0.6 -0.865,-0.894 -0.02,-0.02 -0.082,0.003 -0.067,0.021 0.279,0.338 0.528,0.682 0.763,1.029 a 15.08,15.08 0 0 0 -1.67,1.847 2.824,2.824 0 0 0 -0.295,-0.247 l -0.044,0.021 c 0.082,0.123 0.152,0.252 0.217,0.383 a 26.484,26.484 0 0 0 -1.156,1.59 38.22,38.22 0 0 0 -0.379,-0.517 c 0.532,-1.241 1.318,-2.408 1.986,-3.636 0.042,-0.077 -0.134,-0.06 -0.172,-0.006 -0.715,1.009 -1.554,1.986 -2.32,2.983 -0.12,-0.153 -0.243,-0.305 -0.366,-0.458 0.598,-1.757 1.376,-3.488 2.518,-5.157 0.07,-0.103 -0.178,-0.08 -0.236,-0.008 a 41.145,41.145 0 0 0 -3.019,4.283 37.769,37.769 0 0 0 -0.84,-0.94 c 0.116,-0.27 0.251,-0.54 0.55,-0.744 l -0.03,-0.016 c -0.29,0.15 -0.514,0.344 -0.705,0.558 a 38.08,38.08 0 0 0 -1.271,-1.296 c -0.037,-0.036 -0.133,0.012 -0.11,0.044 0.135,0.175 0.262,0.351 0.39,0.527 l -0.025,0.018 c -0.49,0.734 -0.98,1.464 -1.455,2.198 l -0.102,-0.096 c -0.038,-0.035 -0.137,0.013 -0.11,0.044 0.049,0.054 0.094,0.109 0.141,0.163 -0.193,0.3 -0.383,0.6 -0.568,0.902 -0.401,-0.36 -0.814,-0.717 -1.241,-1.069 l 0.106,-0.367 c 0.28,-0.956 0.58,-1.903 0.919,-2.852 0.222,-0.622 0.752,-1.402 0.562,-2.039 -0.011,-0.038 -0.101,-10e-4 -0.1,0.026 0.014,0.355 -0.357,0.838 -0.523,1.181 -0.234,0.484 -0.543,0.954 -0.86,1.422 a 26.588,26.588 0 0 0 -1.126,1.825 c -0.333,-0.247 -0.685,-0.498 -1.033,-0.753 0.034,-0.127 0.065,-0.254 0.1,-0.38 0.008,-0.032 -0.072,-0.02 -0.081,0.002 l -0.131,0.296 c -0.771,-0.568 -1.512,-1.157 -1.984,-1.774 -0.038,-0.05 -0.182,0.011 -0.162,0.052 0.39,0.78 1.187,1.532 1.91,2.256 -1.03,2.328 -2.02,4.645 -2.764,6.998 a 64.48,64.48 0 0 1 1.782,-6.492 c 0.025,-0.075 -0.167,-0.041 -0.194,0.008 a 47.507,47.507 0 0 0 -2.511,5.202 c 0.453,-2.373 1.09,-4.75 2.319,-7.007 0.042,-0.077 -0.132,-0.059 -0.172,-0.006 a 22.481,22.481 0 0 0 -2.748,4.688 c 0.06,-0.307 0.118,-0.614 0.18,-0.92 0.358,-1.781 1.063,-3.583 1.123,-5.375 0,-0.042 -0.093,-0.017 -0.1,0.012 -0.497,1.763 -1.63,3.469 -2.31,5.215 a 33.137,33.137 0 0 0 -1.2,3.69 c 0.28,-1.83 0.654,-3.65 1.149,-5.455 0.022,-0.082 -0.18,-0.034 -0.201,0.023 -1.184,3.263 -1.804,6.565 -2.27,9.887 -0.178,1.26 -0.247,2.524 -0.292,3.788 0.002,-1.864 -0.036,-3.73 0.021,-5.595 0.06,-1.934 0.182,-3.87 0.362,-5.803 0.178,-1.906 0.65,-3.808 0.774,-5.713 0.004,-0.062 -0.141,-0.027 -0.151,0.017 -0.447,1.947 -1.235,3.877 -1.746,5.823 -0.444,1.69 -0.77,3.384 -0.93,5.09 -0.104,-1.772 -0.28,-3.541 -0.37,-5.313 a 39.552,39.552 0 0 1 -0.038,-3.053 c 0.022,-0.86 0.284,-1.71 0.25,-2.572 -0.002,-0.047 -0.13,-0.009 -0.134,0.024 -0.11,0.88 -0.488,1.737 -0.68,2.612 -0.214,0.971 -0.4,1.946 -0.582,2.92 -0.352,1.88 -0.501,3.769 -0.528,5.659 -0.026,1.919 0.045,3.833 0.277,5.74 l -0.01,0.003 c -0.159,0.047 -0.294,0.114 -0.411,0.192 a 689.19,689.19 0 0 0 -0.443,-5.965 c -0.28,-3.578 -0.852,-7.143 -1.217,-10.717 -0.004,-0.041 -0.115,-0.008 -0.118,0.02 a 69.243,69.243 0 0 0 -0.287,7.886 c -0.33,-1.14 -0.717,-2.277 -1.23,-3.378 a 16.848,16.848 0 0 0 -1.362,-2.403 c -0.468,-0.684 -1.012,-1.452 -1.958,-1.975 -0.035,-0.02 -0.095,0.02 -0.067,0.04 0.874,0.64 1.273,1.592 1.663,2.358 0.46,0.904 0.74,1.848 1.029,2.773 0.614,1.964 0.959,3.964 1.364,5.945 0.5,2.444 0.893,4.896 1.224,7.35 l -0.404,0.555 c -0.2,-1.662 -0.51,-3.325 -0.708,-4.969 -0.17,-1.414 -0.394,-2.822 -0.789,-4.222 -0.355,-1.259 -0.587,-2.564 -1.361,-3.768 -0.013,-0.02 -0.073,0.004 -0.065,0.02 0.6,1.264 0.634,2.604 0.816,3.902 0.2,1.443 0.257,2.885 0.356,4.331 0.09,1.318 0.134,2.664 0.26,4.006 l -0.016,-0.086 c -0.312,-1.778 -0.514,-3.554 -0.949,-5.326 -0.798,-3.26 -1.734,-6.778 -4.37,-9.758 -0.037,-0.041 -0.15,0.015 -0.125,0.05 2.255,3.249 2.51,6.932 3.121,10.364 0.25,1.408 0.411,2.822 0.575,4.234 -0.14,-0.714 -0.29,-1.427 -0.46,-2.138 -0.42,-1.769 -1.064,-3.527 -1.754,-5.269 -0.622,-1.569 -1.127,-3.222 -2.295,-4.702 -0.03,-0.037 -0.13,0.013 -0.11,0.044 0.966,1.547 1.24,3.235 1.657,4.847 0.164,0.634 0.304,1.268 0.431,1.903 -0.366,-1.043 -0.748,-2.083 -1.073,-3.123 -0.984,-3.146 -2.134,-6.248 -3.812,-9.302 -0.011,-0.02 -0.07,0.005 -0.065,0.021 0.754,2.619 1.434,5.244 2.161,7.864 -0.374,-0.72 -0.769,-1.439 -1.187,-2.153 -0.023,-0.072 -0.044,-0.145 -0.068,-0.218 -0.225,-0.661 -0.35,-1.486 -0.945,-2.078 l -0.049,0.018 c 0.103,0.272 0.156,0.558 0.187,0.85 a 38.295,38.295 0 0 0 -1.29,-1.89 c -0.038,-0.054 -0.182,0.017 -0.155,0.062 0.57,0.971 1.057,1.946 1.482,2.925 0,0.193 0,0.382 0.006,0.566 0.013,0.36 0.033,0.72 0.053,1.08 a 30.694,30.694 0 0 0 -1.431,-2.735 c -1.056,-1.781 -2.257,-3.766 -4.086,-5.35 -0.028,-0.025 -0.095,0.009 -0.078,0.031 0.73,0.933 1.068,1.943 1.547,2.921 l 0.043,0.09 c 0.317,0.866 0.58,1.734 0.804,2.604 a 18.504,18.504 0 0 0 -2.23,-1.969 c -0.025,-0.018 -0.082,0.008 -0.063,0.025 a 16.423,16.423 0 0 1 2.552,3.023 c 0.52,2.344 0.804,4.704 1.146,7.082 0.185,1.29 0.356,2.59 0.454,3.888 a 46.091,46.091 0 0 0 -0.403,-1.85 c -0.046,-0.259 -0.09,-0.517 -0.141,-0.775 -0.773,-3.862 -2.021,-7.805 -4.776,-11.396 -0.028,-0.037 -0.139,10e-4 -0.12,0.034 0.887,1.522 1.486,3.075 1.918,4.645 a 40.974,40.974 0 0 0 -1.555,-2.216 c -0.792,-1.059 -1.565,-2.113 -2.512,-3.133 -0.923,-0.995 -2.2,-2.062 -2.71,-3.15 -0.023,-0.051 -0.183,-0.003 -0.173,0.039 0.215,0.96 1.018,1.927 1.59,2.835 0.69,1.096 1.358,2.187 1.908,3.307 1.107,2.258 2.445,4.455 3.2,6.762"
         style="fill:#398a37;fill-opacity:1;fill-rule:nonzero;stroke:none;stroke-width:0.0447927" />
      <path
         id="path8"
         transform="matrix(1,0,0,0.57443,-15.297,-22.463)"
         d="m 171.5,84.85 h 1.127 c -0.105,-2.58 -0.144,-5.164 -0.034,-7.745 0.068,-1.61 0.085,-3.235 0.324,-4.841 0.112,-0.756 0.214,-1.527 0.467,-2.274 0.214,-0.632 0.412,-1.414 1.032,-1.966 l -0.06,-0.03 c -0.693,0.46 -1.03,1.1 -1.319,1.67 -0.328,0.65 -0.585,1.323 -0.783,1.99 -0.27,0.907 -0.433,1.837 -0.55,2.769 a 58.16,58.16 0 0 0 -1.258,-6.336 c -0.006,-0.024 -0.1,-0.046 -0.097,-0.013 0.17,2.893 0.175,5.785 0.415,8.677 0.225,2.7 0.467,5.4 0.737,8.1 M 154.245,71.148 c 0.286,0.348 0.584,0.692 0.847,1.046 0.562,0.756 1.05,1.522 1.514,2.298 0.825,1.38 1.455,2.774 2.014,4.193 0.615,1.56 1.103,3.135 1.608,4.708 0.156,0.484 0.297,0.971 0.442,1.458 h 2.252 a 37.703,37.703 0 0 0 -0.35,-1.213 c -0.48,-1.588 -1.014,-3.183 -1.737,-4.742 -0.727,-1.57 -1.545,-3.136 -2.574,-4.652 -0.997,-1.472 -2.222,-2.873 -3.437,-4.29 -0.027,-0.032 -0.132,-0.035 -0.1,0.009 1.07,1.488 2.169,2.95 2.896,4.506 0.102,0.219 0.2,0.438 0.3,0.656 a 37.81,37.81 0 0 0 -0.922,-1.286 c -0.587,-0.784 -1.202,-1.574 -1.991,-2.304 -0.469,-0.433 -0.816,-1.077 -1.55,-1.391 l -0.023,0.014 c 0.449,0.254 0.55,0.675 0.81,0.99"
         style="fill:#63c338;fill-opacity:1;fill-rule:nonzero;stroke:none;stroke-width:0.0447927" />
      <path
         id="path10"
         transform="matrix(1,0,0,0.57443,-15.297,-22.463)"
         d="m 157.654,71.253 a 277.97,277.97 0 0 1 2.006,4.433 c 1.34,3.038 2.24,6.165 3.851,9.165 h 3.999 c 0.046,-0.545 0.042,-1.092 0.009,-1.638 0.084,0.546 0.16,1.092 0.23,1.638 h 0.824 c -0.017,-0.22 -0.042,-0.44 -0.073,-0.66 0.046,0.22 0.095,0.44 0.146,0.66 h 2.079 c 0.274,-2.688 0.042,-5.37 -0.43,-8.052 -0.267,-1.52 -0.634,-3.035 -1.162,-4.535 a 83.543,83.543 0 0 0 -0.849,-2.327 c -0.268,-0.696 -0.684,-1.37 -0.887,-2.075 -0.008,-0.026 -0.116,-0.052 -0.111,-0.014 0.084,0.695 0.406,1.369 0.536,2.06 0.153,0.819 0.277,1.64 0.368,2.46 0.157,1.43 0.246,2.861 0.393,4.292 a 27.798,27.798 0 0 0 -1.412,-4.06 c -0.664,-1.546 -1.55,-3.068 -2.164,-4.618 -0.013,-0.035 -0.135,-0.057 -0.123,-0.007 0.347,1.528 0.975,3.04 1.367,4.568 a 79.264,79.264 0 0 1 1.047,4.657 c 0.29,1.5 0.5,3.003 0.745,4.504 -0.2,-1.016 -0.42,-2.031 -0.727,-3.038 -0.808,-2.656 -1.737,-5.29 -3.116,-7.869 -0.024,-0.044 -0.194,-0.075 -0.165,-0.01 a 42.325,42.325 0 0 1 1.635,4.345 30.014,30.014 0 0 0 -1.447,-2.922 c -0.774,-1.378 -1.909,-2.706 -2.538,-4.105 -0.01,-0.023 -0.089,-0.039 -0.082,-0.006 0.282,1.44 1.084,2.863 1.605,4.282 0.089,0.244 0.176,0.489 0.263,0.734 a 21.179,21.179 0 0 0 -2.822,-3.664 c -0.04,-0.04 -0.182,-0.048 -0.138,0.012 1.283,1.768 2.106,3.656 2.78,5.547 a 44.267,44.267 0 0 0 -2.7,-4.086 c -0.028,-0.039 -0.187,-0.058 -0.157,10e-4 a 57.883,57.883 0 0 1 2.28,5.155 c -1.013,-2.086 -2.268,-4.123 -3.54,-6.175 -0.01,-0.018 -0.076,-0.024 -0.065,0 a 65.43,65.43 0 0 1 1.913,4.855 33.822,33.822 0 0 0 -1.903,-3.06 27.305,27.305 0 0 0 -1.758,-2.268 c -0.316,-0.364 -0.626,-0.73 -0.877,-1.11 -0.179,-0.27 -0.54,-0.644 -0.576,-0.93 -0.002,-0.022 -0.08,-0.048 -0.084,-0.017 -0.07,0.52 0.46,1.127 0.719,1.619 0.397,0.75 0.76,1.501 1.11,2.259 m 15.403,13.597 h 6.249 c 0.052,-0.34 0.105,-0.68 0.17,-1.016 0.326,-1.656 0.642,-3.314 0.905,-4.974 0.484,-3.052 0.938,-6.327 3.369,-9.125 l -0.053,-0.018 c -0.835,0.759 -1.501,1.562 -2.053,2.392 l 0.152,-0.596 c 0.202,-0.777 0.446,-1.55 0.693,-2.323 0.257,-0.807 0.398,-1.634 0.864,-2.414 0.01,-0.02 -0.048,-0.044 -0.067,-0.023 -1.266,1.35 -1.974,2.996 -2.592,4.472 -0.665,1.587 -1.088,3.203 -1.444,4.819 a 64.769,64.769 0 0 0 -0.371,1.822 c 0.185,-2.732 0.548,-5.425 1.664,-8.123 0.016,-0.038 -0.11,-0.089 -0.134,-0.044 -0.814,1.49 -1.452,3.01 -1.985,4.54 0.244,-2.14 0.45,-4.28 0.715,-6.418 l -0.054,-0.015 c -0.954,2.526 -1.475,5.07 -1.857,7.643 -0.127,0.85 -0.299,1.703 -0.457,2.558 0.019,-0.517 0.05,-1.033 0.098,-1.55 0.126,-1.315 0.127,-2.685 0.703,-3.969 0.012,-0.026 -0.075,-0.062 -0.094,-0.03 -0.748,1.237 -0.94,2.589 -1.235,3.877 -0.329,1.43 -0.62,2.871 -0.726,4.312 -0.044,0.58 -0.072,1.16 -0.091,1.74 -0.053,-1.143 -0.108,-2.288 -0.09,-3.431 0.045,-2.788 -0.23,-5.764 1.163,-8.47 0.016,-0.03 -0.083,-0.07 -0.107,-0.035 -1.734,2.505 -2.029,5.376 -2.247,8.032 -0.12,1.444 -0.051,2.882 -0.07,4.326 0,0.023 0,0.047 -0.002,0.07 -0.074,-1.086 -0.213,-2.171 -0.312,-3.236 -0.11,-1.168 -0.252,-2.332 -0.278,-3.501 -0.023,-1.052 -0.17,-2.132 0.148,-3.174 l -0.055,-0.014 c -0.466,1 -0.483,2.061 -0.605,3.089 -0.135,1.142 -0.131,2.286 -0.084,3.43 0.073,1.778 -0.008,3.59 0.17,5.378 M 131.135,84.85 h 1.126 c -0.104,-2.58 -0.143,-5.164 -0.034,-7.745 0.069,-1.61 0.086,-3.235 0.325,-4.841 0.112,-0.756 0.214,-1.527 0.467,-2.274 0.214,-0.632 0.411,-1.414 1.031,-1.966 l -0.058,-0.03 c -0.695,0.46 -1.032,1.1 -1.32,1.67 -0.328,0.65 -0.586,1.323 -0.783,1.99 -0.27,0.907 -0.434,1.837 -0.55,2.769 a 58.194,58.194 0 0 0 -1.259,-6.336 c -0.006,-0.024 -0.099,-0.046 -0.097,-0.013 0.171,2.893 0.176,5.785 0.416,8.677 0.224,2.7 0.467,5.4 0.736,8.1 M 113.88,71.148 c 0.286,0.348 0.583,0.692 0.846,1.046 0.563,0.756 1.05,1.522 1.515,2.298 0.825,1.38 1.454,2.774 2.013,4.193 0.616,1.56 1.104,3.135 1.608,4.708 0.156,0.484 0.298,0.971 0.443,1.458 h 2.252 c -0.11,-0.409 -0.229,-0.814 -0.35,-1.213 -0.48,-1.588 -1.014,-3.183 -1.737,-4.742 -0.728,-1.57 -1.546,-3.136 -2.574,-4.652 -0.998,-1.472 -2.222,-2.873 -3.438,-4.29 -0.027,-0.032 -0.131,-0.035 -0.1,0.009 1.07,1.488 2.17,2.95 2.896,4.506 0.102,0.219 0.2,0.438 0.3,0.656 -0.295,-0.43 -0.602,-0.86 -0.921,-1.286 -0.588,-0.784 -1.202,-1.574 -1.992,-2.304 -0.468,-0.433 -0.816,-1.077 -1.55,-1.391 l -0.022,0.014 c 0.448,0.254 0.55,0.675 0.81,0.99"
         style="fill:#63c338;fill-opacity:1;fill-rule:nonzero;stroke:none;stroke-width:0.0447927" />
      <path
         id="path12"
         transform="matrix(1,0,0,0.57443,-15.297,-22.463)"
         d="m 117.289,71.253 a 279.936,279.936 0 0 1 2.005,4.433 c 1.34,3.038 2.24,6.165 3.852,9.165 h 3.999 a 11.37,11.37 0 0 0 0.009,-1.638 c 0.083,0.546 0.16,1.092 0.23,1.638 h 0.824 c -0.017,-0.22 -0.043,-0.44 -0.074,-0.66 0.047,0.22 0.096,0.44 0.147,0.66 h 2.078 c 0.274,-2.688 0.042,-5.37 -0.43,-8.052 -0.267,-1.52 -0.633,-3.035 -1.162,-4.535 a 82.437,82.437 0 0 0 -0.848,-2.327 c -0.269,-0.696 -0.684,-1.37 -0.888,-2.075 -0.008,-0.026 -0.115,-0.052 -0.11,-0.014 0.084,0.695 0.405,1.369 0.535,2.06 0.154,0.819 0.277,1.64 0.368,2.46 0.157,1.43 0.247,2.861 0.394,4.292 a 27.803,27.803 0 0 0 -1.412,-4.06 c -0.665,-1.546 -1.55,-3.068 -2.164,-4.618 -0.014,-0.035 -0.135,-0.057 -0.124,-0.007 0.348,1.528 0.976,3.04 1.368,4.568 a 79.392,79.392 0 0 1 1.046,4.657 c 0.29,1.5 0.501,3.003 0.746,4.504 -0.2,-1.016 -0.421,-2.031 -0.728,-3.038 -0.808,-2.656 -1.737,-5.29 -3.115,-7.869 -0.024,-0.044 -0.194,-0.075 -0.165,-0.01 a 42.368,42.368 0 0 1 1.635,4.345 30.082,30.082 0 0 0 -1.447,-2.922 c -0.775,-1.378 -1.909,-2.706 -2.538,-4.105 -0.01,-0.023 -0.089,-0.039 -0.082,-0.006 0.282,1.44 1.083,2.863 1.604,4.282 0.09,0.244 0.177,0.489 0.264,0.734 a 21.183,21.183 0 0 0 -2.822,-3.664 c -0.04,-0.04 -0.182,-0.048 -0.138,0.012 1.283,1.768 2.106,3.656 2.78,5.547 a 44.337,44.337 0 0 0 -2.7,-4.086 c -0.028,-0.039 -0.187,-0.058 -0.157,10e-4 a 57.842,57.842 0 0 1 2.28,5.155 c -1.013,-2.086 -2.268,-4.123 -3.54,-6.175 -0.01,-0.018 -0.076,-0.024 -0.066,0 a 65.27,65.27 0 0 1 1.914,4.855 33.678,33.678 0 0 0 -1.903,-3.06 27.322,27.322 0 0 0 -1.758,-2.268 c -0.317,-0.364 -0.626,-0.73 -0.878,-1.11 -0.178,-0.27 -0.54,-0.644 -0.575,-0.93 -0.003,-0.022 -0.08,-0.048 -0.084,-0.017 -0.07,0.52 0.459,1.127 0.719,1.619 0.396,0.75 0.76,1.501 1.11,2.259 m 15.403,13.597 h 6.248 c 0.053,-0.34 0.106,-0.68 0.172,-1.016 0.324,-1.656 0.64,-3.314 0.903,-4.974 0.484,-3.052 0.939,-6.327 3.37,-9.125 l -0.054,-0.018 a 12.75,12.75 0 0 0 -2.052,2.392 c 0.05,-0.198 0.1,-0.397 0.152,-0.596 0.201,-0.777 0.445,-1.55 0.693,-2.323 0.257,-0.807 0.397,-1.634 0.863,-2.414 0.012,-0.02 -0.047,-0.044 -0.066,-0.023 -1.266,1.35 -1.974,2.996 -2.592,4.472 -0.665,1.587 -1.088,3.203 -1.444,4.819 a 63.504,63.504 0 0 0 -0.371,1.822 c 0.185,-2.732 0.548,-5.425 1.664,-8.123 0.016,-0.038 -0.11,-0.089 -0.134,-0.044 -0.814,1.49 -1.452,3.01 -1.985,4.54 0.244,-2.14 0.45,-4.28 0.715,-6.418 l -0.055,-0.015 c -0.953,2.526 -1.474,5.07 -1.856,7.643 -0.127,0.85 -0.3,1.703 -0.458,2.558 0.02,-0.517 0.05,-1.033 0.099,-1.55 0.126,-1.315 0.127,-2.685 0.703,-3.969 0.011,-0.026 -0.076,-0.062 -0.094,-0.03 -0.749,1.237 -0.94,2.589 -1.236,3.877 -0.328,1.43 -0.619,2.871 -0.726,4.312 -0.043,0.58 -0.071,1.16 -0.091,1.74 -0.052,-1.143 -0.107,-2.288 -0.089,-3.431 0.044,-2.788 -0.23,-5.764 1.163,-8.47 0.016,-0.03 -0.083,-0.07 -0.107,-0.035 -1.735,2.505 -2.03,5.376 -2.248,8.032 -0.119,1.444 -0.05,2.882 -0.07,4.326 l -0.001,0.07 c -0.074,-1.086 -0.213,-2.171 -0.313,-3.236 -0.109,-1.168 -0.251,-2.332 -0.278,-3.501 -0.022,-1.052 -0.17,-2.132 0.149,-3.174 l -0.055,-0.014 c -0.467,1 -0.483,2.061 -0.605,3.089 -0.136,1.142 -0.132,2.286 -0.085,3.43 0.073,1.778 -0.008,3.59 0.17,5.378"
         style="fill:#63c338;fill-opacity:1;fill-rule:nonzero;stroke:none;stroke-width:0.0447927" />
      <path
         id="path14"
         transform="matrix(1,0,0,0.57443,-15.297,-22.463)"
         d="m 144.315,84.85 c 0.01,-0.134 0.015,-0.269 0.025,-0.403 0.11,-0.507 0.214,-1.008 0.342,-1.49 0.507,-1.899 0.987,-3.811 1.798,-5.678 0.8,-1.843 2.062,-3.582 3.142,-5.375 0.536,-0.89 1.166,-1.754 1.814,-2.62 0.537,-0.719 1.264,-1.479 1.517,-2.248 0.012,-0.033 -0.113,-0.076 -0.136,-0.035 -0.502,0.864 -1.62,1.693 -2.448,2.472 -0.848,0.8 -1.56,1.63 -2.287,2.464 -0.503,0.578 -0.985,1.16 -1.437,1.749 a 16.851,16.851 0 0 1 1.931,-3.7 c 0.018,-0.026 -0.067,-0.06 -0.093,-0.03 -2.52,2.827 -3.855,5.978 -4.799,9.074 -0.063,0.207 -0.12,0.414 -0.178,0.622 -0.17,0.493 -0.33,0.987 -0.478,1.482 a 48.94,48.94 0 0 1 0.688,-3.126 c 0.85,-3.432 1.542,-6.823 3.461,-10.135 0.016,-0.027 -0.069,-0.061 -0.093,-0.032 -2.308,2.798 -3.733,5.698 -4.802,8.694 0.08,-0.625 0.167,-1.25 0.257,-1.875 0.105,-0.729 0.233,-1.457 0.334,-2.186 0.09,-0.65 0.087,-1.39 0.394,-2.022 l -0.038,-0.015 c -0.53,0.462 -0.699,1.124 -0.935,1.652 -0.278,0.623 -0.49,1.254 -0.712,1.884 a 21.53,21.53 0 0 0 -1.06,4.453 c -0.184,1.455 -0.26,2.91 -0.38,4.365 -0.055,0.66 -0.168,1.36 -0.198,2.06 h 4.372 M 108.784,84.85 h 1.745 c -0.422,-2.536 -0.99,-5.054 -1.902,-7.56 -1.125,-3.099 -3.353,-6.122 -5.272,-9.089 -0.01,-0.013 -0.062,-0.02 -0.053,0 1.388,2.948 2.592,5.952 3.376,8.97 0.667,2.568 1.097,5.15 2.106,7.68 m -0.815,-13.966 c 0.535,0.762 1.124,1.512 1.644,2.277 a 32.854,32.854 0 0 1 2.484,4.376 c -0.143,-0.254 -0.29,-0.507 -0.446,-0.76 -0.801,-1.294 -1.89,-2.545 -2.59,-3.857 -0.017,-0.033 -0.14,-0.058 -0.124,-0.008 0.384,1.189 1.086,2.341 1.543,3.525 -1.073,-1.644 -2.323,-3.252 -3.445,-4.895 -0.025,-0.036 -0.17,-0.053 -0.144,10e-4 1.23,2.66 2.188,5.346 3.18,8.037 0.637,1.73 0.997,3.513 1.533,5.27 h 5.872 a 10.041,10.041 0 0 0 -0.106,-0.496 l 0.03,0.01 c 0.044,0.16 0.085,0.323 0.127,0.486 h 2.68 c -0.072,-0.24 -0.146,-0.477 -0.22,-0.712 -0.6,-1.92 -1.435,-3.81 -2.422,-5.68 -1.874,-3.551 -4.238,-7.026 -7.498,-10.26 -0.055,-0.056 -0.258,-0.064 -0.188,0.016 1.506,1.72 2.512,3.552 3.353,5.414 -0.058,-0.068 -0.114,-0.137 -0.173,-0.205 -0.92,-1.051 -2.031,-2.04 -2.973,-3.084 -0.038,-0.042 -0.181,-0.048 -0.138,0.012 0.804,1.107 1.723,2.143 2.327,3.297 0.317,0.607 0.64,1.213 0.966,1.818 a 25.357,25.357 0 0 0 -2.197,-2.654 c -0.68,-0.716 -1.37,-1.427 -2.255,-2.073 -0.813,-0.593 -1.728,-1.163 -2.498,-1.77 -0.032,-0.026 -0.127,-0.022 -0.093,0.015 0.584,0.644 1.294,1.222 1.77,1.9 M 101.96,69.56 c 0.349,0.843 0.54,1.707 0.778,2.56 0.5,1.795 0.992,3.592 1.535,5.383 0.617,2.034 1.257,4.065 1.828,6.102 0.063,0.416 0.133,0.831 0.21,1.246 h 1.464 c -0.16,-2.335 -0.7,-4.651 -1.38,-6.978 a 44.359,44.359 0 0 0 -1.943,-5.415 c -0.39,-0.89 -0.915,-1.763 -1.436,-2.631 -0.229,-0.381 -0.612,-0.747 -0.91,-1.112 -0.196,-0.242 -0.78,-0.78 -0.768,-1.028 0.002,-0.031 -0.099,-0.063 -0.112,-0.022 -0.066,0.196 0.054,0.358 0.174,0.542 0.28,0.424 0.378,0.912 0.56,1.354"
         style="fill:#63c338;fill-opacity:1;fill-rule:nonzero;stroke:none;stroke-width:0.0447927" />
      <path
         id="path16"
         transform="matrix(1,0,0,0.57443,-15.297,-22.463)"
         d="m 148.664,84.85 a 20.23,20.23 0 0 1 -0.035,-0.376 c -0.084,-1.013 -0.016,-2.032 0.057,-3.048 a 18.77,18.77 0 0 0 0.224,3.425 h 5.14 c 0.028,-0.402 0.045,-0.803 0.054,-1.206 0.096,0.404 0.216,0.806 0.36,1.206 h 2.654 c -0.33,-1.477 -0.83,-2.944 -1.155,-4.425 -0.523,-2.383 -0.98,-4.76 -1.322,-7.153 -0.005,-0.036 -0.097,-0.006 -0.1,0.018 -0.201,1.445 -0.452,2.903 -0.617,4.36 -0.059,-1.199 -0.133,-2.4 -0.272,-3.596 -0.178,-1.544 -0.745,-3.054 -1.017,-4.59 -0.008,-0.047 -0.13,-0.008 -0.134,0.024 -0.17,1.495 -0.022,2.994 -0.062,4.49 -0.044,1.625 -0.203,3.249 -0.217,4.875 -0.014,1.705 -0.137,3.426 -0.166,5.144 -0.071,-1.04 -0.143,-2.08 -0.132,-3.119 0.023,-2.247 0.141,-4.505 -0.16,-6.748 -0.003,-0.024 -0.064,-0.004 -0.067,0.012 -0.28,1.927 -0.715,3.843 -0.928,5.771 0.01,-0.237 0.017,-0.474 0.028,-0.712 0.064,-1.373 0.22,-2.746 0.336,-4.118 0.111,-1.318 -0.027,-2.676 0.377,-3.979 0.015,-0.044 -0.096,-0.023 -0.113,0.005 -1.63,2.624 -2.223,5.559 -2.563,8.313 -0.018,0.145 -0.033,0.29 -0.048,0.434 0.14,-2.511 0.344,-5.079 1.128,-7.55 0.016,-0.05 -0.11,-0.027 -0.13,0.006 -1.425,2.458 -2.324,4.998 -2.894,7.56 0.001,-1.148 0.073,-2.292 0.13,-3.448 0.002,-0.025 -0.054,-0.014 -0.064,0.003 -1.045,1.94 -1.816,3.825 -1.852,5.863 -0.015,0.842 0.002,1.702 0.1,2.56 h 3.46 m 9.408,-0.001 h 1.737 c -0.41,-1.104 -0.918,-2.204 -1.248,-3.303 -0.307,-1.022 -0.623,-2.044 -0.93,-3.066 -0.28,-0.933 -0.634,-1.9 -0.663,-2.847 0,-0.053 -0.144,-0.009 -0.15,0.027 a 8.485,8.485 0 0 0 -0.083,1.953 c -0.08,-0.238 -0.157,-0.475 -0.23,-0.714 -0.3,-0.984 -0.774,-1.976 -0.965,-2.965 -0.006,-0.03 -0.083,-0.006 -0.084,0.015 -0.129,2.003 0.364,4.073 0.87,6.052 0.403,1.57 0.812,3.286 1.746,4.849 m 29.512,-0.001 c 0.283,-3.255 0.041,-6.515 0.03,-9.772 -0.004,-1.574 -0.06,-3.149 -0.086,-4.723 -0.023,-1.465 0.13,-2.944 0.038,-4.405 -0.002,-0.035 -0.097,-0.006 -0.1,0.018 -0.202,1.426 -0.674,2.844 -0.869,4.274 -0.227,1.66 -0.308,3.324 -0.346,4.99 a 57.63,57.63 0 0 0 -0.007,2.191 c -0.2,-3.01 -0.114,-6.02 -0.274,-9.03 -0.002,-0.04 -0.114,-0.008 -0.117,0.021 -0.246,3.013 -0.751,6.003 -0.724,9.024 0.016,1.69 0.109,3.388 0.3,5.081 -0.189,-1.075 -0.44,-2.15 -0.598,-3.224 -0.202,-1.366 -0.475,-2.729 -0.644,-4.096 -0.153,-1.231 -0.005,-2.563 -0.396,-3.774 -0.01,-0.033 -0.084,-10e-4 -0.084,0.02 0.016,0.63 -0.248,1.29 -0.343,1.918 a 55.353,55.353 0 0 0 -0.254,2.032 18.53,18.53 0 0 0 -0.006,4.023 c 0.08,0.743 0.153,1.494 0.243,2.247 -0.3,-1.37 -0.546,-2.739 -0.683,-4.123 -0.007,-0.07 -0.195,-0.012 -0.201,0.037 l -0.033,0.222 c 0.038,-1.92 0.22,-3.84 0.532,-5.75 0.007,-0.042 -0.09,-0.017 -0.1,0.01 a 46.396,46.396 0 0 0 -1.82,7.185 c -0.006,-1.48 0.103,-2.953 0.185,-4.44 0.003,-0.049 -0.11,-0.022 -0.118,0.012 -0.42,2.106 -0.984,4.172 -0.954,6.3 0.017,1.243 0.09,2.493 0.314,3.733 h 7.115 m -86.952,-7.83 c 0.354,2.61 0.543,5.228 1.06,7.83 h 6.455 a 21.649,21.649 0 0 0 -0.19,-2.782 c -0.234,-1.879 -0.986,-3.68 -1.615,-5.524 -0.01,-0.03 -0.113,-0.049 -0.105,-0.007 0.254,1.31 0.531,2.606 0.708,3.913 a 44.671,44.671 0 0 0 -2.488,-6.272 c -0.012,-0.025 -0.101,-0.043 -0.09,-0.006 a 37.71,37.71 0 0 1 1.176,5.055 c -0.019,-0.065 -0.039,-0.13 -0.056,-0.195 -0.012,-0.042 -0.185,-0.087 -0.182,-0.024 a 30.82,30.82 0 0 1 -0.098,3.664 c -0.012,-0.667 -0.04,-1.333 -0.061,-1.992 a 16.703,16.703 0 0 0 -0.499,-3.55 c -0.15,-0.596 -0.301,-1.191 -0.474,-1.785 -0.16,-0.55 -0.475,-1.122 -0.538,-1.679 -0.002,-0.02 -0.07,-0.044 -0.076,-0.015 -0.196,1.084 0.098,2.254 0.114,3.346 0.018,1.213 -0.056,2.427 -0.066,3.64 -0.008,0.955 -0.098,1.913 -0.133,2.87 a 43.742,43.742 0 0 0 -0.358,-4.497 c -0.347,-2.668 -1.16,-5.289 -1.747,-7.938 -0.006,-0.026 -0.109,-0.05 -0.106,-0.015 0.23,2.663 0.674,5.316 0.867,7.982 -0.08,-0.645 -0.171,-1.29 -0.276,-1.935 -0.238,-1.468 -0.513,-2.934 -0.917,-4.39 -0.348,-1.256 -0.939,-2.49 -1.292,-3.74 -0.006,-0.021 -0.093,-0.043 -0.09,-0.012 0.098,1.293 0.415,2.593 0.574,3.887 0.17,1.39 0.314,2.782 0.503,4.171"
         style="fill:#63c338;fill-opacity:1;fill-rule:nonzero;stroke:none;stroke-width:0.0447927" />
      <path
         id="path18"
         transform="matrix(1,0,0,0.57443,-15.297,-22.463)"
         d="m 143.594,81.328 h -0.035 c -0.002,-0.09 -0.007,-0.18 -0.007,-0.27 0.012,0.09 0.026,0.18 0.043,0.27"
         style="fill:#9ed521;fill-opacity:1;fill-rule:nonzero;stroke:none;stroke-width:0.0447927" />
      <path
         id="path20"
         transform="matrix(1,0,0,0.57443,-15.297,-22.463)"
         d="m 179.467,80.963 c -0.095,-0.087 -0.186,-0.175 -0.287,-0.262 0.035,-0.466 0.075,-0.934 0.13,-1.401 0.155,0.471 0.253,0.946 0.318,1.423 -0.055,0.08 -0.108,0.16 -0.161,0.24 z m -11.724,-2.592 c -0.049,0.945 -0.117,1.89 -0.227,2.834 a 15.496,15.496 0 0 0 -0.632,-2.053 c 0.27,-0.43 0.572,-0.846 0.9,-1.241 -0.018,0.156 -0.033,0.31 -0.041,0.46 z m -4.167,0.994 a 6.333,6.333 0 0 0 -0.048,-0.343 c 0.05,0.052 0.096,0.104 0.143,0.156 z m -5.277,0.012 c 0.033,-0.334 0.06,-0.667 0.11,-0.998 0.011,0.05 0.022,0.098 0.034,0.141 0.122,0.453 0.215,0.908 0.3,1.364 a 6.543,6.543 0 0 0 -0.444,-0.507 z m -0.662,-0.702 a 6.08,6.08 0 0 1 -0.272,-0.317 c -0.024,-0.03 -0.097,0.01 -0.084,0.035 0.084,0.16 0.155,0.321 0.222,0.482 -0.122,0.18 -0.25,0.36 -0.364,0.54 0.071,-1.063 0.149,-2.14 0.331,-3.2 0.515,0.316 0.705,0.964 0.82,1.54 -0.225,0.309 -0.444,0.616 -0.653,0.92 z m -20.049,3.413 c -0.094,-0.087 -0.185,-0.174 -0.287,-0.261 0.035,-0.467 0.075,-0.935 0.13,-1.402 0.156,0.472 0.254,0.946 0.318,1.424 -0.055,0.08 -0.107,0.16 -0.161,0.24 z m -11.723,-2.592 c -0.05,0.945 -0.118,1.89 -0.227,2.834 a 15.502,15.502 0 0 0 -0.632,-2.053 c 0.27,-0.43 0.571,-0.846 0.9,-1.24 -0.018,0.155 -0.033,0.31 -0.041,0.46 z m -4.168,0.994 a 6.758,6.758 0 0 0 -0.047,-0.343 c 0.05,0.052 0.095,0.104 0.142,0.157 z m -5.276,0.012 c 0.033,-0.333 0.059,-0.666 0.11,-0.997 0.01,0.05 0.022,0.097 0.033,0.14 0.122,0.453 0.215,0.908 0.3,1.364 a 6.599,6.599 0 0 0 -0.443,-0.507 z M 115.759,79.8 a 5.903,5.903 0 0 1 -0.272,-0.316 c -0.024,-0.03 -0.098,0.01 -0.085,0.035 0.084,0.16 0.156,0.32 0.222,0.481 -0.122,0.18 -0.249,0.361 -0.364,0.541 0.072,-1.063 0.15,-2.14 0.331,-3.2 0.515,0.316 0.706,0.963 0.82,1.539 -0.225,0.31 -0.443,0.617 -0.652,0.92 z m 71.902,-0.905 a 9.66,9.66 0 0 0 -1.288,1.238 28.02,28.02 0 0 1 0.308,-3.493 c 0.008,-0.047 -0.096,-0.017 -0.108,0.013 -0.392,0.934 -0.91,1.816 -1.349,2.712 a 5.894,5.894 0 0 0 -1.539,-3.454 c -0.024,-0.026 -0.097,0.007 -0.087,0.03 0.335,0.784 -0.046,1.728 -0.178,2.53 l -0.012,0.088 a 8.99,8.99 0 0 0 -1.117,-1.902 c -0.028,-0.036 -0.126,0.008 -0.113,0.038 0.364,0.889 0.35,1.878 0.268,2.83 a 5.588,5.588 0 0 0 -1.32,-2.137 c -0.397,-0.403 -1.259,-1.086 -2.02,-1.25 -0.032,-0.008 -0.08,0.022 -0.05,0.037 0.839,0.447 0.87,1.733 1.035,2.345 0.106,0.392 0.188,0.787 0.264,1.182 l -0.055,0.075 c -0.28,-0.342 -0.612,-0.665 -0.923,-1 0.074,-0.52 0.169,-1.037 0.296,-1.549 0.01,-0.039 -0.083,-0.021 -0.095,0.004 -0.193,0.375 -0.392,0.746 -0.59,1.116 -0.03,0 -0.068,0.027 -0.059,0.045 l 0.016,0.033 c -0.474,0.884 -0.942,1.76 -1.303,2.66 0.002,-1.06 -0.003,-2.12 -0.013,-3.175 0,-0.024 -0.059,-0.003 -0.063,0.012 -0.213,0.777 -0.88,1.48 -1.15,2.253 -0.07,0.197 -0.13,0.396 -0.187,0.594 -0.035,-1.726 -0.015,-3.457 0.292,-5.173 0.007,-0.038 -0.084,-0.022 -0.096,0.004 -0.684,1.581 -1.257,3.102 -1.595,4.686 -0.334,-1.225 -0.876,-2.426 -1.405,-3.653 -0.016,-0.039 -0.104,-0.003 -0.099,0.026 0.266,1.503 0.207,3.036 0.065,4.56 l -0.237,0.015 c -0.086,-0.481 -0.16,-0.963 -0.2,-1.447 -0.004,-0.062 -0.165,-0.01 -0.17,0.033 -0.059,0.498 -0.212,0.984 -0.371,1.47 l -0.423,0.036 c -0.025,-2.014 -0.412,-4.124 0.159,-6.09 0.015,-0.053 -0.113,-0.03 -0.131,0.005 a 18.694,18.694 0 0 0 -1.687,4.803 c -0.261,-0.954 -0.511,-1.909 -0.598,-2.863 -0.005,-0.051 -0.142,-0.01 -0.144,0.028 -0.033,0.461 -0.08,0.92 -0.132,1.378 -0.21,-1.215 -0.662,-2.43 -1.5,-3.492 -0.021,-0.028 -0.092,0.007 -0.086,0.03 0.213,0.773 0.06,1.651 -0.05,2.481 -0.439,0.278 -0.854,0.556 -1.238,0.839 -0.522,-1.123 -1.242,-2.206 -2.284,-3.285 -0.028,-0.028 -0.102,0.01 -0.084,0.036 0.875,1.229 1.386,2.486 1.72,3.757 -0.16,0.132 -0.314,0.267 -0.462,0.403 a 8.16,8.16 0 0 0 -0.688,-0.42 c 0.05,-0.767 0.127,-1.533 0.247,-2.297 0.007,-0.047 -0.095,-0.017 -0.108,0.013 -0.274,0.652 -0.609,1.279 -0.935,1.903 a 5.72,5.72 0 0 0 -0.606,-0.213 5.879,5.879 0 0 0 -1.346,-2.432 c -0.024,-0.026 -0.097,0.007 -0.087,0.03 0.335,0.784 -0.046,1.728 -0.179,2.53 l -0.012,0.088 a 8.99,8.99 0 0 0 -1.117,-1.902 c -0.027,-0.036 -0.125,0.008 -0.113,0.038 0.365,0.889 0.352,1.878 0.269,2.83 a 5.587,5.587 0 0 0 -1.32,-2.137 c -0.393,-0.399 -1.24,-1.07 -1.994,-1.244 0.057,-0.326 0.123,-0.65 0.203,-0.97 0.01,-0.04 -0.083,-0.022 -0.095,0.003 -0.667,1.297 -1.414,2.551 -1.936,3.853 0.002,-1.06 -0.003,-2.12 -0.013,-3.174 0,-0.024 -0.06,-0.003 -0.063,0.012 -0.213,0.777 -0.88,1.48 -1.15,2.253 -0.07,0.197 -0.129,0.395 -0.187,0.594 -0.035,-1.727 -0.015,-3.457 0.292,-5.173 0.007,-0.038 -0.084,-0.023 -0.096,0.004 -0.684,1.58 -1.257,3.102 -1.595,4.685 -0.334,-1.225 -0.876,-2.425 -1.405,-3.652 -0.016,-0.039 -0.104,-0.003 -0.099,0.026 0.314,1.775 0.176,3.593 -0.018,5.386 -0.15,-0.751 -0.293,-1.502 -0.353,-2.258 -0.005,-0.062 -0.167,-0.01 -0.172,0.033 -0.092,0.792 -0.426,1.554 -0.641,2.336 -0.071,0.259 -0.125,0.52 -0.17,0.782 0.001,-0.346 0.007,-0.693 0.016,-1.04 0.06,-2.184 -0.464,-4.51 0.16,-6.663 0.016,-0.052 -0.112,-0.03 -0.13,0.006 a 18.695,18.695 0 0 0 -1.687,4.803 c -0.261,-0.954 -0.511,-1.909 -0.598,-2.863 -0.005,-0.052 -0.142,-0.01 -0.144,0.028 -0.033,0.461 -0.08,0.92 -0.132,1.378 -0.21,-1.215 -0.662,-2.43 -1.5,-3.492 -0.022,-0.028 -0.092,0.007 -0.086,0.03 0.28,1.016 -0.074,2.214 -0.128,3.245 -0.05,0.945 -0.117,1.89 -0.227,2.834 -0.517,-2.166 -1.35,-4.11 -3.217,-6.044 -0.028,-0.028 -0.102,0.01 -0.084,0.036 1.099,1.543 1.63,3.13 1.947,4.734 -0.075,-0.075 -0.15,-0.151 -0.233,-0.225 -0.57,-0.513 -2.11,-1.408 -3.197,-1.485 l 0.016,-0.015 -0.08,-0.053 c -0.041,-0.026 -0.123,0.027 -0.085,0.053 0.464,0.333 0.846,0.69 1.168,1.062 0.236,0.754 -0.1,1.63 -0.224,2.384 l -0.012,0.087 a 8.975,8.975 0 0 0 -1.117,-1.902 c -0.028,-0.036 -0.125,0.009 -0.113,0.038 0.364,0.89 0.351,1.879 0.268,2.83 a 5.59,5.59 0 0 0 -1.319,-2.137 c -0.398,-0.403 -1.26,-1.085 -2.021,-1.25 -0.031,-0.007 -0.08,0.023 -0.05,0.038 0.839,0.446 0.87,1.732 1.035,2.345 0.106,0.392 0.188,0.786 0.264,1.181 l -0.055,0.075 c -0.279,-0.342 -0.612,-0.665 -0.923,-0.999 0.074,-0.52 0.169,-1.038 0.297,-1.55 0.01,-0.038 -0.083,-0.02 -0.096,0.005 -0.193,0.374 -0.392,0.745 -0.59,1.115 -0.03,0 -0.068,0.027 -0.059,0.046 l 0.017,0.033 c -0.475,0.883 -0.943,1.76 -1.304,2.659 0.002,-1.06 -0.003,-2.12 -0.013,-3.175 0,-0.023 -0.059,-0.002 -0.063,0.012 -0.213,0.777 -0.879,1.48 -1.15,2.254 -0.07,0.197 -0.128,0.395 -0.186,0.593 -0.035,-1.726 -0.015,-3.456 0.292,-5.173 0.007,-0.038 -0.085,-0.022 -0.096,0.005 -0.685,1.58 -1.257,3.101 -1.595,4.685 -0.334,-1.225 -0.876,-2.425 -1.405,-3.653 -0.017,-0.038 -0.105,-0.003 -0.1,0.026 0.314,1.775 0.177,3.594 -0.018,5.386 -0.15,-0.75 -0.292,-1.502 -0.353,-2.257 -0.005,-0.062 -0.166,-0.01 -0.171,0.032 -0.093,0.793 -0.426,1.554 -0.642,2.337 -0.07,0.258 -0.125,0.52 -0.169,0.781 0,-0.346 0.005,-0.693 0.015,-1.04 0.06,-2.184 -0.463,-4.51 0.161,-6.662 0.016,-0.053 -0.113,-0.03 -0.13,0.005 a 18.687,18.687 0 0 0 -1.687,4.804 c -0.262,-0.955 -0.512,-1.91 -0.599,-2.863 -0.005,-0.052 -0.141,-0.01 -0.144,0.027 -0.032,0.462 -0.08,0.92 -0.132,1.378 -0.21,-1.215 -0.662,-2.429 -1.499,-3.492 -0.022,-0.028 -0.093,0.008 -0.087,0.03 0.214,0.773 0.06,1.652 -0.05,2.481 -0.438,0.279 -0.853,0.557 -1.237,0.84 -0.523,-1.123 -1.242,-2.206 -2.284,-3.285 -0.028,-0.029 -0.102,0.01 -0.085,0.035 0.876,1.23 1.387,2.486 1.72,3.757 -0.16,0.133 -0.314,0.267 -0.461,0.403 a 8.13,8.13 0 0 0 -0.688,-0.42 c 0.05,-0.766 0.126,-1.532 0.247,-2.296 0.008,-0.048 -0.096,-0.017 -0.109,0.013 -0.273,0.652 -0.608,1.278 -0.935,1.902 a 5.704,5.704 0 0 0 -0.605,-0.213 5.876,5.876 0 0 0 -1.347,-2.431 c -0.024,-0.027 -0.096,0.006 -0.087,0.03 0.335,0.784 -0.045,1.728 -0.178,2.53 l -0.012,0.087 a 8.978,8.978 0 0 0 -1.117,-1.902 c -0.028,-0.036 -0.125,0.009 -0.113,0.038 0.364,0.89 0.351,1.879 0.268,2.83 A 5.59,5.59 0 0 0 117.6,78.513 c -0.393,-0.399 -1.24,-1.069 -1.995,-1.244 0.058,-0.325 0.124,-0.65 0.204,-0.97 0.01,-0.04 -0.083,-0.022 -0.096,0.004 -0.667,1.297 -1.413,2.55 -1.935,3.853 0.002,-1.06 -0.003,-2.12 -0.014,-3.175 0,-0.023 -0.059,-0.002 -0.063,0.012 -0.213,0.777 -0.879,1.48 -1.15,2.254 -0.07,0.197 -0.128,0.395 -0.186,0.593 -0.035,-1.726 -0.015,-3.457 0.292,-5.173 0.007,-0.038 -0.085,-0.022 -0.096,0.004 -0.685,1.581 -1.257,3.102 -1.595,4.686 -0.334,-1.225 -0.876,-2.426 -1.405,-3.653 -0.017,-0.038 -0.104,-0.003 -0.1,0.026 0.315,1.775 0.177,3.593 -0.018,5.386 -0.15,-0.75 -0.292,-1.502 -0.353,-2.257 -0.005,-0.062 -0.166,-0.011 -0.171,0.032 -0.093,0.793 -0.426,1.554 -0.642,2.336 a 7.72,7.72 0 0 0 -0.169,0.782 c 0,-0.346 0.005,-0.693 0.015,-1.04 0.06,-2.184 -0.463,-4.51 0.161,-6.663 0.016,-0.052 -0.113,-0.029 -0.13,0.006 a 18.697,18.697 0 0 0 -1.687,4.803 c -0.262,-0.954 -0.512,-1.908 -0.599,-2.862 -0.005,-0.052 -0.141,-0.01 -0.144,0.027 -0.032,0.461 -0.08,0.92 -0.132,1.378 -0.21,-1.215 -0.662,-2.429 -1.499,-3.492 -0.022,-0.028 -0.093,0.008 -0.087,0.03 0.281,1.016 -0.074,2.215 -0.127,3.245 -0.05,0.945 -0.118,1.89 -0.227,2.834 -0.517,-2.166 -1.35,-4.11 -3.217,-6.044 -0.028,-0.028 -0.102,0.01 -0.084,0.036 1.098,1.544 1.629,3.13 1.947,4.735 -0.076,-0.076 -0.151,-0.152 -0.233,-0.226 -0.57,-0.513 -2.111,-1.408 -3.197,-1.485 l 0.016,-0.015 -0.081,-0.052 c -0.04,-0.026 -0.122,0.026 -0.085,0.053 1.966,1.41 2.5,3.225 2.942,4.976 0.204,0.807 0.2,1.71 0.311,2.598 h 85.354 c 0.07,-1.533 0.151,-5.203 0.336,-5.956"
         style="fill:#419d3a;fill-opacity:1;fill-rule:nonzero;stroke:none;stroke-width:0.0447927" />
      <path
         id="path22"
         transform="matrix(1,0,0,0.57443,-15.297,-22.463)"
         d="m 143.594,81.295 -0.017,0.033 c -0.006,-0.058 -0.017,-0.116 -0.025,-0.175 l 0.042,0.142"
         style="fill:#419d3a;fill-opacity:1;fill-rule:nonzero;stroke:none;stroke-width:0.0447927" />
      <path
         id="path24"
         transform="matrix(1,0,0,0.57443,-15.297,-22.463)"
         d="m 143.565,81.313 0.009,-0.047 0.007,0.062 -0.017,-0.015"
         style="fill:#419d3a;fill-opacity:1;fill-rule:nonzero;stroke:none;stroke-width:0.0447927" />
    </g>
    <g
       transform="translate(-3.6032328,1.2532984)"
       style="stroke-width:1.77392"
       id="g968">
      <path
         d="m 134.16,165.746 0.026,0.243 c 0.006,-0.106 0.015,-0.211 0.021,-0.317 l -0.047,0.074"
         style="fill:#419d3a;fill-opacity:1;fill-rule:nonzero;stroke:none;stroke-width:0.177392"
         transform="matrix(0.35177,0,0,-0.11243,-2.061,44.905)"
         id="path942" />
      <path
         d="m 254.615,165.672 c 0.075,3.291 -0.169,6.637 -0.443,9.954 0.324,-3.327 0.7,-6.645 1.12,-9.954 h 3.079 a 197.83,197.83 0 0 1 -0.212,9.145 c 0.524,0.153 1.104,0.684 1.128,1.166 0.827,16.725 0.128,33.468 0.098,50.202 -0.014,8.043 -0.174,16.086 -0.246,24.129 -0.067,7.482 0.368,15.043 0.108,22.506 -0.006,0.179 -0.276,0.03 -0.286,-0.094 -0.573,-7.283 -1.915,-14.528 -2.469,-21.834 -0.645,-8.484 -0.875,-16.985 -0.983,-25.492 a 536.15,536.15 0 0 1 -0.021,-11.2 c -0.57,15.383 -0.326,30.762 -0.779,46.138 -0.005,0.205 -0.326,0.04 -0.333,-0.109 -0.701,-15.391 -2.136,-30.67 -2.058,-46.106 0.044,-8.635 0.309,-17.307 0.853,-25.96 -0.537,5.493 -1.25,10.983 -1.7,16.475 -0.574,6.978 -1.35,13.942 -1.832,20.928 -0.434,6.289 -0.014,13.094 -1.124,19.283 -0.03,0.165 -0.24,0.006 -0.239,-0.108 0.046,-3.218 -0.706,-6.585 -0.975,-9.796 -0.288,-3.456 -0.506,-6.921 -0.722,-10.382 a 169.584,169.584 0 0 1 -0.016,-20.552 c 0.225,-3.8 0.433,-7.637 0.69,-11.482 -0.854,7.001 -1.551,13.992 -1.943,21.064 -0.02,0.359 -0.553,0.059 -0.571,-0.188 -0.029,-0.378 -0.064,-0.757 -0.093,-1.135 a 369.45,369.45 0 0 0 1.513,29.381 c 0.019,0.213 -0.258,0.085 -0.285,-0.058 A 399.35,399.35 0 0 1 240.7,204.888 c -0.016,7.562 0.294,15.09 0.525,22.688 0.008,0.246 -0.314,0.11 -0.333,-0.067 -1.193,-10.758 -2.798,-21.314 -2.714,-32.185 0.075,-9.904 0.545,-19.902 2.405,-29.652 h 14.032"
         style="fill:#63c338;fill-opacity:1;fill-rule:nonzero;stroke:none;stroke-width:0.177392"
         transform="matrix(0.35177,0,0,-0.11243,-2.061,44.905)"
         id="path944" />
      <path
         d="m 88.53,187.491 -0.178,0.009 c -0.009,1.072 -0.031,2.143 -0.037,3.216 0.062,-1.075 0.133,-2.15 0.216,-3.225 z m 23.049,53.089 a 2447.019,2447.019 0 0 0 3.279,20.875 179.592,179.592 0 0 0 2.562,-5.453 182.492,182.492 0 0 1 -1.76,-5.904 c -2.743,-9.873 -4.721,-19.993 -6.379,-30.098 -1.399,-8.53 -2.306,-17.179 -3.029,-25.805 a 22.228,22.228 0 0 1 -0.462,1.846 c 2.213,14.799 3.547,29.788 5.789,44.539 z m -2.105,31.361 c 0.219,-0.4 0.438,-0.8 0.647,-1.197 a 663.556,663.556 0 0 0 1.625,-3.117 c -0.178,-0.597 -0.36,-1.192 -0.533,-1.79 -1.893,-6.533 -3.52,-13.182 -4.932,-19.859 a 647.864,647.864 0 0 0 3.193,25.963 z m 9.318,-18.99 c 0.205,-0.459 0.408,-0.919 0.614,-1.377 a 296.005,296.005 0 0 1 -2.05,-6.918 c 0.226,1.408 0.446,2.815 0.68,4.223 0.227,1.366 0.483,2.722 0.756,4.072 z m 2.901,11.857 c 0.423,-0.902 0.835,-1.806 1.236,-2.715 a 118.165,118.165 0 0 1 -1.406,-3.925 c -0.369,0.613 -0.745,1.224 -1.117,1.835 0.408,1.607 0.843,3.207 1.287,4.805 z m 3.833,13.022 a 185.787,185.787 0 0 0 1.894,-4.909 c -0.663,-1.637 -1.215,-3.344 -1.896,-4.746 a 71.458,71.458 0 0 1 -2.178,-5.006 c -0.465,0.825 -0.94,1.645 -1.422,2.46 1.148,4.071 2.38,8.124 3.602,12.201 z m 2.537,-6.692 a 213.15,213.15 0 0 0 1.931,-5.605 301.444,301.444 0 0 1 -2.924,-9.433 147.731,147.731 0 0 1 -2.421,4.721 c 0.308,1.062 0.62,2.123 0.951,3.181 0.722,2.311 1.567,4.57 2.375,6.851 0.032,0.092 0.058,0.191 0.088,0.285 z m -2.392,-19.96 c -0.76,1.311 -1.52,2.621 -2.302,3.921 l -0.195,0.325 c 0.324,1.25 0.66,2.497 1.007,3.741 a 148.64,148.64 0 0 0 2.164,-5.554 c -0.23,-0.809 -0.45,-1.621 -0.674,-2.433 z m -6.463,-27.511 a 363.873,363.873 0 0 1 -3.165,-18.278 1.958,1.958 0 0 1 -0.899,-0.057 c 0.513,5.573 1.074,11.142 1.777,16.695 1.088,8.583 2.415,17.057 4.329,25.489 0.734,-1.602 1.47,-3.203 2.202,-4.802 a 407.248,407.248 0 0 1 -4.244,-19.047 z m 12.953,34.885 c 0.096,-0.326 0.195,-0.652 0.29,-0.98 -0.103,-0.264 -0.211,-0.526 -0.311,-0.792 -0.169,-0.444 -0.327,-0.894 -0.492,-1.341 0.164,1.04 0.339,2.077 0.513,3.113 z m 2.01,-7.139 c 0.138,-0.511 0.279,-1.02 0.413,-1.531 a 189.599,189.599 0 0 1 -1.925,-6.019 c 0.51,2.515 1.01,5.033 1.512,7.55 z m 4.231,-17.027 0.08,-0.342 c -0.22,-0.951 -0.435,-1.905 -0.643,-2.859 0.183,1.07 0.371,2.136 0.563,3.201 z m 3.733,17.748 c 0.177,-1.027 0.359,-2.053 0.541,-3.079 -0.502,-1.678 -1.008,-3.356 -1.508,-5.034 -0.181,0.522 -0.362,1.044 -0.547,1.565 0.477,2.187 0.982,4.369 1.514,6.548 z m 1.484,-8.419 0.256,-1.44 a 290.174,290.174 0 0 1 -0.943,-3.466 l -0.018,0.054 c 0.202,1.622 0.444,3.238 0.705,4.852 z m 0.441,15.802 c 0.886,3.184 1.873,6.337 2.849,9.494 a 108.371,108.371 0 0 0 2.269,-8.732 c -1.107,-3.691 -2.224,-7.377 -3.311,-11.066 -0.275,0.927 -0.557,1.851 -0.844,2.773 0.519,3.094 0.987,6.191 1.263,9.311 0.028,0.322 -0.386,0.126 -0.429,-0.086 -0.456,-2.268 -1.017,-4.518 -1.627,-6.757 -0.167,0.503 -0.327,1.01 -0.501,1.511 -0.117,0.337 -0.231,0.687 -0.347,1.041 0.223,0.837 0.446,1.675 0.678,2.511 z m 4.469,14.854 c 0.044,0.15 0.096,0.296 0.142,0.445 0.326,-2.225 0.637,-4.453 0.914,-6.687 0.157,-1.259 0.308,-2.516 0.463,-3.775 a 97.429,97.429 0 0 1 -2.552,6.567 c 0.35,1.147 0.698,2.297 1.033,3.45 z m 4.117,-39.159 0.006,0.093 c 0.385,-4.607 0.69,-9.192 0.998,-13.7 0.259,-3.781 0.548,-7.559 0.848,-11.337 a 407.807,407.807 0 0 1 -0.969,6.368 c -0.415,2.57 -0.877,5.127 -1.376,7.675 0.143,3.633 0.298,7.267 0.493,10.901 z m 3.291,34.563 c 2.188,-13.956 2.863,-27.897 3.118,-41.993 -0.333,3.85 -0.683,7.698 -1.078,11.542 -0.782,7.608 -1.696,15.221 -2.992,22.765 0.3,2.565 0.615,5.127 0.952,7.686 z m 24.116,-30.877 c -0.097,2.105 -0.158,4.231 -0.244,6.359 0.738,-5.894 1.354,-11.811 2.024,-17.694 a 876.297,876.297 0 0 0 2.19,-21.775 c -0.699,1.15 -1.633,1.553 -2.868,0.219 -0.715,-0.773 -1.239,-1.68 -1.642,-2.667 0.113,4.644 0.217,9.277 0.412,13.87 0.307,7.232 0.463,14.457 0.128,21.688 z m 64.744,38.146 -1.083,-2.439 c 0.251,0.884 0.58,1.723 1.083,2.439 z M 24.902,223.975 c 2.173,-11.944 3.169,-24.109 4.263,-36.188 0.278,-3.072 0.46,-6.254 0.664,-9.473 -0.05,-3.589 -0.166,-7.175 -0.294,-10.76 a 58.968,58.968 0 0 1 -0.415,-1.882 h 221.008 c 1.289,4.062 1.724,8.452 1.53,12.444 l -0.012,0.253 c 3.202,18.627 3.104,37.479 4.118,56.314 0.726,13.481 2.189,26.981 4.089,40.388 0.23,1.494 0.458,2.987 0.703,4.48 l -0.031,0.152 c 0.624,4.179 1.282,8.35 1.979,12.505 0.022,0.126 -0.161,0.074 -0.184,-0.013 -3.31,-12.666 -7.066,-25.526 -9.879,-38.488 a 328.803,328.803 0 0 1 -1.683,-6.094 c 0.93,7.595 2.733,15.07 3.405,22.674 0.028,0.322 -0.386,0.126 -0.429,-0.087 -1.707,-8.479 -4.815,-16.698 -6.886,-25.103 a 191.63,191.63 0 0 1 -1.132,-4.922 c 1.634,9.566 3.614,18.961 6.221,28.332 1.386,4.982 3.024,9.889 4.469,14.854 1.286,4.42 3.444,8.28 5.124,12.518 0.098,0.248 -0.234,0.243 -0.331,0.073 -2.356,-4.072 -5.236,-7.945 -7.748,-11.939 -2.733,-4.344 -4.75,-9.035 -6.725,-13.758 -2.38,-5.693 -4.426,-11.505 -6.19,-17.403 0.795,3.916 1.587,7.832 2.353,11.753 1.46,7.454 4.092,14.265 6.281,21.487 0.119,0.392 -0.38,0.31 -0.49,0.032 -1.154,-2.928 -2.424,-5.804 -3.702,-8.675 l -0.063,-0.026 c -2.391,-2.212 -3.244,-6.373 -4.64,-9.248 -0.071,-0.146 -0.136,-0.296 -0.207,-0.443 1.826,10.857 4.229,21.578 8.134,31.839 0.199,0.524 -0.505,0.408 -0.669,0.043 -5.656,-12.618 -10.164,-25.668 -13.85,-38.958 -1.176,-3.485 -2.283,-6.995 -3.272,-10.558 -2.743,-9.873 -4.721,-19.993 -6.379,-30.098 a 251.144,251.144 0 0 1 -1.293,-8.971 l -0.198,-0.054 c 1.211,9.89 2.299,19.8 3.789,29.605 a 2644.703,2644.703 0 0 0 4.513,28.539 c 0.796,4.88 1.647,9.721 2.61,14.571 0.632,3.178 2.14,7.162 1.601,10.414 -0.033,0.198 -0.288,0.009 -0.285,-0.129 0.04,-1.813 -1.015,-4.284 -1.488,-6.038 -0.665,-2.473 -1.543,-4.871 -2.445,-7.263 -1.841,-4.879 -3.421,-9.828 -4.872,-14.837 -1.893,-6.533 -3.52,-13.182 -4.932,-19.859 a 639.3,639.3 0 0 0 3.951,31.164 c 0.024,0.158 -0.203,0.094 -0.23,-0.016 -3.291,-13.324 -6.533,-26.544 -8.9,-39.994 a 548.594,548.594 0 0 0 5.066,33.17 c 0.071,0.381 -0.475,0.211 -0.553,-0.041 a 353.708,353.708 0 0 1 -7.138,-26.576 c 1.289,12.122 3.101,24.262 6.593,35.797 0.12,0.395 -0.376,0.303 -0.49,0.032 -3.317,-7.82 -5.838,-15.818 -7.81,-23.951 0.167,1.567 0.333,3.135 0.509,4.702 1.019,9.098 3.023,18.301 3.193,27.458 0.005,0.214 -0.262,0.09 -0.285,-0.058 -1.411,-9.01 -4.631,-17.726 -6.563,-26.646 a 273.38,273.38 0 0 1 -3.412,-18.85 c 0.794,9.343 1.857,18.645 3.265,27.868 0.064,0.417 -0.514,0.174 -0.572,-0.116 -3.366,-16.673 -5.129,-33.546 -6.454,-50.517 -0.503,-6.436 -0.7,-12.897 -0.827,-19.355 0.006,9.526 -0.105,19.056 0.059,28.587 0.17,9.883 0.516,19.777 1.028,29.648 0.505,9.739 1.848,19.458 2.2,29.189 0.011,0.317 -0.4,0.139 -0.429,-0.087 -1.27,-9.949 -3.511,-19.809 -4.963,-29.748 -1.262,-8.637 -2.19,-17.294 -2.644,-26.004 -0.295,9.049 -0.794,18.09 -1.054,27.139 -0.148,5.197 -0.181,10.4 -0.106,15.599 0.064,4.397 0.806,8.739 0.711,13.144 -0.006,0.237 -0.37,0.043 -0.382,-0.125 -0.314,-4.498 -1.387,-8.875 -1.933,-13.344 -0.607,-4.963 -1.135,-9.943 -1.654,-14.916 -1,-9.608 -1.425,-19.258 -1.5,-28.916 -0.073,-9.511 0.115,-19 0.727,-28.456 a 2.233,2.233 0 0 1 -0.724,-0.463 4.057,4.057 0 0 1 -0.446,-0.575 c -0.386,9.884 -0.797,19.767 -1.228,29.648 -0.797,18.282 -2.421,36.492 -3.46,54.757 -0.012,0.208 -0.326,0.037 -0.333,-0.109 a 634.217,634.217 0 0 1 -0.816,-40.285 c -0.938,5.825 -2.039,11.63 -3.497,17.259 -1.071,4.135 -2.353,8.284 -3.873,12.275 -1.331,3.497 -2.875,7.421 -5.567,10.093 -0.098,0.098 -0.268,-0.101 -0.189,-0.204 2.485,-3.274 3.618,-8.135 4.727,-12.05 1.308,-4.62 2.104,-9.44 2.925,-14.166 0.191,-1.098 0.369,-2.198 0.543,-3.3 0.365,-5.419 -0.083,-10.932 -0.256,-16.333 -0.236,-7.39 -0.882,-14.736 -1.41,-22.108 -0.481,-6.72 -1.107,-13.569 -1.501,-20.428 l 0.003,0.444 c 0.112,9.127 0.531,18.209 0.292,27.343 -0.438,16.8 -1.117,34.964 -6.906,50.914 -0.08,0.223 -0.431,-0.026 -0.38,-0.217 4.56,-17.196 3.228,-35.981 3.037,-53.602 -0.078,-7.228 -0.414,-14.457 -0.739,-21.681 a 492.13,492.13 0 0 1 -0.104,11.002 c -0.199,9.114 -1.042,18.242 -2.019,27.3 -0.88,8.165 -1.385,16.718 -3.862,24.595 -0.062,0.197 -0.371,-0.023 -0.333,-0.191 1.866,-8.152 1.698,-16.812 1.977,-25.128 0.109,-3.27 0.15,-6.536 0.156,-9.8 -0.452,5.41 -0.952,10.814 -1.29,16.196 -1.026,16.281 -2.543,32.394 -5.581,48.425 -0.02,0.107 -0.199,-0.004 -0.195,-0.087 0.669,-13.533 1.126,-27.076 1.718,-40.612 -1.308,7.534 -2.843,15.039 -4.716,22.454 a 665.665,665.665 0 0 0 2.999,19.612 c 0.021,0.126 -0.161,0.074 -0.184,-0.013 -1.3,-4.976 -2.67,-9.982 -4.025,-15.012 -0.163,0.597 -0.322,1.195 -0.491,1.791 -0.08,0.282 -0.526,-0.032 -0.476,-0.272 0.205,-0.978 0.399,-1.956 0.587,-2.933 a 989.49,989.49 0 0 1 -1.481,-5.574 c -0.702,3.296 -1.446,6.711 -2.306,10.126 0.89,1.996 1.823,3.972 2.642,6.039 0.098,0.249 -0.234,0.243 -0.332,0.074 a 88.17,88.17 0 0 0 -2.75,-4.402 c -1.448,5.487 -3.224,10.911 -5.633,15.753 -0.065,0.133 -0.275,-0.015 -0.237,-0.135 1.542,-4.963 1.933,-10.199 2.738,-15.316 0.212,-1.345 0.422,-2.69 0.629,-4.035 a 153.711,153.711 0 0 1 -2.483,-3.787 75.019,75.019 0 0 1 -2.458,4.57 c -0.058,0.101 -0.234,-0.014 -0.19,-0.108 a 80.066,80.066 0 0 0 2.168,-5.256 c -1.828,-3.025 -3.343,-6.201 -4.75,-9.435 -0.259,0.443 -0.534,0.869 -0.837,1.262 l -0.123,-0.11 c 0.233,-0.63 0.432,-1.288 0.616,-1.955 -0.391,-0.913 -0.778,-1.827 -1.162,-2.744 a 163.915,163.915 0 0 1 -2.124,-5.377 c -0.355,0.881 -0.711,1.76 -1.077,2.637 1.512,6.342 3.745,12.305 5.645,18.577 0.119,0.392 -0.38,0.31 -0.49,0.032 -2.032,-5.156 -4.418,-10.148 -6.592,-15.243 -0.342,0.783 -0.693,1.562 -1.044,2.341 1.702,8.977 3.913,17.821 7.158,26.349 0.199,0.524 -0.505,0.408 -0.669,0.043 -3.212,-7.166 -6.049,-14.474 -8.582,-21.883 a 200.323,200.323 0 0 1 -2.387,4.803 c 0.328,1.38 0.712,2.758 1.564,3.797 l -0.088,0.082 c -0.823,-0.761 -1.461,-1.755 -2.004,-2.847 a 188.04,188.04 0 0 1 -3.614,6.621 c -0.103,0.18 -0.378,-0.065 -0.31,-0.226 0.381,-0.895 0.743,-1.795 1.107,-2.694 l -0.072,-0.09 c -1.391,-3.749 -2.787,-7.483 -4.134,-11.23 -0.099,0.162 -0.192,0.328 -0.292,0.491 -0.108,0.175 -0.389,-0.066 -0.31,-0.226 0.136,-0.276 0.265,-0.555 0.4,-0.832 a 345.012,345.012 0 0 1 -1.617,-4.612 164.84,164.84 0 0 1 -3.527,5.462 c 0.101,0.626 0.199,1.253 0.301,1.879 0.797,4.88 1.648,9.721 2.612,14.571 0.631,3.178 2.139,7.162 1.6,10.414 -0.033,0.198 -0.289,0.009 -0.286,-0.129 0.041,-1.813 -1.015,-4.284 -1.487,-6.038 -0.665,-2.473 -1.543,-4.871 -2.445,-7.263 a 177.864,177.864 0 0 1 -3.199,-9.323 c -0.948,1.263 -1.948,2.544 -2.938,3.845 0.097,0.649 0.185,1.297 0.284,1.946 0.024,0.158 -0.203,0.094 -0.231,-0.016 l -0.371,-1.508 c -2.192,2.9 -4.299,5.907 -5.641,9.064 -0.106,0.249 -0.518,-0.061 -0.46,-0.269 1.108,-3.986 3.375,-7.825 5.428,-11.527 -2.924,-11.892 -5.739,-23.731 -7.855,-35.754 a 549.387,549.387 0 0 0 5.066,33.17 c 0.071,0.381 -0.475,0.211 -0.553,-0.041 a 353.563,353.563 0 0 1 -7.138,-26.576 c 1.289,12.122 3.101,24.262 6.593,35.797 0.119,0.395 -0.376,0.303 -0.49,0.032 -3.317,-7.82 -5.838,-15.818 -7.81,-23.951 0.167,1.567 0.333,3.135 0.509,4.702 1.019,9.098 3.023,18.301 3.194,27.458 0.004,0.214 -0.263,0.09 -0.286,-0.058 -1.41,-9.01 -4.631,-17.726 -6.563,-26.646 a 274.468,274.468 0 0 1 -3.413,-18.85 c 0.795,9.343 1.858,18.645 3.266,27.868 0.064,0.417 -0.514,0.174 -0.572,-0.116 -3.366,-16.673 -5.128,-33.546 -6.454,-50.517 -0.503,-6.436 -0.7,-12.897 -0.827,-19.355 0.006,9.526 -0.105,19.056 0.06,28.587 0.17,9.883 0.515,19.777 1.027,29.648 0.505,9.739 1.848,19.458 2.2,29.189 0.01,0.317 -0.4,0.139 -0.429,-0.087 -1.27,-9.949 -3.511,-19.809 -4.963,-29.748 -1.262,-8.637 -2.19,-17.294 -2.644,-26.004 -0.295,9.049 -0.795,18.09 -1.054,27.139 -0.148,5.197 -0.18,10.4 -0.106,15.599 0.064,4.397 0.806,8.739 0.71,13.144 -0.005,0.237 -0.369,0.043 -0.38,-0.125 -0.315,-4.498 -1.388,-8.875 -1.934,-13.344 -0.607,-4.963 -1.135,-9.943 -1.654,-14.916 -1,-9.608 -1.425,-19.258 -1.5,-28.916 -0.075,-9.804 0.128,-19.584 0.786,-29.33 l -0.027,-0.01 a 3.962,3.962 0 0 1 -1.17,-0.985 c -0.395,10.16 -0.816,20.32 -1.26,30.479 -0.797,18.282 -2.42,36.492 -3.46,54.757 -0.012,0.208 -0.326,0.037 -0.333,-0.109 a 634.59,634.59 0 0 1 -0.816,-40.285 c -0.938,5.825 -2.039,11.63 -3.497,17.259 -1.071,4.135 -2.353,8.284 -3.873,12.275 -1.33,3.497 -2.875,7.421 -5.567,10.093 -0.098,0.098 -0.268,-0.101 -0.19,-0.204 2.486,-3.274 3.62,-8.135 4.728,-12.05 1.308,-4.62 2.104,-9.44 2.925,-14.166 1.745,-10.037 2.726,-20.256 3.88,-30.376 1.422,-12.485 2.538,-25.013 3.477,-37.551 l -1.148,-2.839 c -0.57,8.491 -1.45,16.99 -2.014,25.389 -0.484,7.223 -1.118,14.42 -2.241,21.572 -1.009,6.43 -1.668,13.101 -3.87,19.252 -0.037,0.101 -0.207,-0.023 -0.185,-0.107 1.708,-6.454 1.804,-13.3 2.32,-19.931 0.571,-7.372 0.73,-14.743 1.011,-22.129 0.256,-6.733 0.382,-13.61 0.74,-20.47 l -0.046,0.441 c -0.885,9.085 -1.461,18.159 -2.696,27.212 -2.27,16.652 -4.929,34.633 -12.425,49.855 -0.104,0.213 -0.426,-0.073 -0.354,-0.258 6.41,-16.595 7.138,-35.412 8.873,-52.949 0.711,-7.193 1.168,-14.416 1.633,-21.632 a 492.652,492.652 0 0 1 -1.305,10.925 c -1.193,9.037 -3.028,18.019 -4.988,26.917 -1.767,8.019 -3.203,16.466 -6.525,24.025 -0.083,0.189 -0.367,-0.063 -0.31,-0.225 2.744,-7.901 3.523,-16.527 4.708,-24.763 0.467,-3.238 0.864,-6.479 1.226,-9.724 -1.04,5.329 -2.127,10.645 -3.052,15.958 -2.797,16.072 -6.065,31.923 -10.835,47.526 -0.032,0.104 -0.197,-0.026 -0.184,-0.108 2.142,-13.379 4.076,-26.791 6.142,-40.181 a 340.316,340.316 0 0 1 -3.374,11 c -0.066,0.371 -0.126,0.744 -0.195,1.114 -0.638,3.38 -0.993,7.592 -2.686,10.617 l -0.138,-0.091 c 0.292,-1.387 0.444,-2.851 0.53,-4.339 a 242.658,242.658 0 0 1 -3.664,9.658 c -0.11,0.272 -0.52,-0.089 -0.444,-0.323 a 195.371,195.371 0 0 0 4.214,-14.945 c -10e-4,-0.982 -10e-4,-1.951 0.017,-2.889 0.038,-1.84 0.094,-3.68 0.15,-5.52 -1.215,4.7 -2.547,9.368 -4.067,13.975 -3.003,9.101 -6.416,19.241 -11.614,27.336 -0.08,0.125 -0.272,-0.046 -0.222,-0.161 2.075,-4.765 3.036,-9.927 4.395,-14.925 l 0.125,-0.462 c 0.9,-4.422 1.65,-8.856 2.284,-13.3 -1.874,3.489 -3.964,6.86 -6.34,10.059 -0.069,0.093 -0.231,-0.04 -0.178,-0.129 2.928,-4.882 5.283,-10.075 7.254,-15.444 1.478,-11.976 2.286,-24.035 3.257,-36.183 0.528,-6.595 1.014,-13.229 1.292,-19.862 a 403.48,403.48 0 0 1 -1.146,9.45 c -0.13,1.321 -0.254,2.641 -0.4,3.959 -2.199,19.73 -5.746,39.878 -13.577,58.226 -0.08,0.19 -0.395,-0.007 -0.34,-0.177 2.52,-7.773 4.223,-15.71 5.45,-23.73 a 255.361,255.361 0 0 1 -4.419,11.323 c -2.253,5.41 -4.45,10.794 -7.14,16.008 -2.625,5.083 -6.255,10.535 -7.703,16.092 -0.069,0.261 -0.522,0.015 -0.495,-0.199 0.612,-4.902 2.894,-9.843 4.521,-14.487 1.961,-5.596 3.86,-11.17 5.423,-16.896 3.146,-11.532 6.951,-22.76 9.097,-34.548"
         style="fill:#398a37;fill-opacity:1;fill-rule:nonzero;stroke:none;stroke-width:0.177392"
         transform="matrix(0.35177,0,0,-0.11243,-2.061,44.905)"
         id="path946" />
      <path
         d="m 213.577,165.672 h 3.2 c -0.296,13.187 -0.408,26.391 -0.096,39.574 0.195,8.231 0.243,16.528 0.922,24.736 0.318,3.864 0.609,7.802 1.328,11.617 0.609,3.232 1.17,7.227 2.932,10.043 l -0.167,0.151 c -1.974,-2.347 -2.932,-5.618 -3.751,-8.529 -0.934,-3.323 -1.665,-6.757 -2.227,-10.163 -0.766,-4.638 -1.232,-9.39 -1.565,-14.148 a 512.95,512.95 0 0 1 -3.576,32.372 c -0.017,0.118 -0.282,0.232 -0.276,0.064 0.487,-14.78 0.499,-29.557 1.182,-44.333 a 4501.643,4501.643 0 0 1 2.094,-41.384 m -49.056,70.012 c 0.815,-1.778 1.66,-3.536 2.408,-5.343 1.599,-3.862 2.985,-7.778 4.305,-11.743 2.346,-7.046 4.135,-14.175 5.724,-21.422 1.749,-7.973 3.136,-16.018 4.572,-24.053 0.443,-2.477 0.845,-4.965 1.257,-7.451 h 6.403 a 319.08,319.08 0 0 1 -0.994,6.196 c -1.365,8.112 -2.885,16.262 -4.94,24.23 -2.068,8.016 -4.393,16.019 -7.317,23.769 -2.836,7.517 -6.317,14.675 -9.772,21.918 -0.077,0.16 -0.375,0.177 -0.285,-0.045 3.043,-7.606 6.167,-15.077 8.233,-23.026 0.29,-1.117 0.57,-2.234 0.853,-3.351 a 232.596,232.596 0 0 1 -2.62,6.569 c -1.67,4.009 -3.416,8.045 -5.66,11.774 -1.333,2.214 -2.32,5.501 -4.405,7.109 l -0.066,-0.072 c 1.275,-1.298 1.565,-3.451 2.304,-5.059"
         style="fill:#63c338;fill-opacity:1;fill-rule:nonzero;stroke:none;stroke-width:0.177392"
         transform="matrix(0.35177,0,0,-0.11243,-2.061,44.905)"
         id="path948" />
      <path
         d="m 174.213,235.148 c 1.938,-7.54 3.847,-15.086 5.702,-22.648 3.809,-15.526 6.366,-31.503 10.949,-46.828 h 11.367 c 0.131,2.784 0.12,5.578 0.026,8.371 0.239,-2.792 0.455,-5.583 0.657,-8.371 h 2.34 a 95.272,95.272 0 0 1 -0.209,3.374 c 0.133,-1.125 0.272,-2.25 0.416,-3.374 h 5.91 c 0.779,13.731 0.119,27.436 -1.222,41.138 -0.76,7.77 -1.801,15.508 -3.304,23.171 -0.777,3.966 -1.564,7.937 -2.412,11.888 -0.763,3.558 -1.944,7.005 -2.523,10.603 -0.022,0.135 -0.329,0.264 -0.316,0.073 0.241,-3.553 1.155,-6.995 1.524,-10.53 0.437,-4.18 0.788,-8.371 1.046,-12.566 0.446,-7.304 0.7,-14.619 1.118,-21.926 -0.996,6.98 -2.372,13.882 -4.013,20.744 -1.889,7.897 -4.408,15.672 -6.152,23.59 -0.039,0.179 -0.384,0.293 -0.351,0.039 0.988,-7.809 2.773,-15.537 3.886,-23.34 a 691.826,691.826 0 0 0 2.976,-23.795 c 0.824,-7.661 1.425,-15.341 2.12,-23.009 -0.571,5.19 -1.197,10.376 -2.068,15.522 -2.298,13.566 -4.939,27.022 -8.858,40.202 -0.068,0.228 -0.55,0.383 -0.469,0.051 1.802,-7.322 3.333,-14.734 4.649,-22.199 a 221.286,221.286 0 0 1 -4.114,14.929 c -2.201,7.041 -5.426,13.825 -7.215,20.976 -0.029,0.117 -0.252,0.197 -0.234,0.026 0.802,-7.359 3.082,-14.625 4.562,-21.874 0.254,-1.249 0.501,-2.499 0.75,-3.749 -2.177,6.406 -4.786,12.661 -8.023,18.716 -0.112,0.21 -0.518,0.248 -0.392,-0.061 3.647,-9.034 5.986,-18.676 7.901,-28.342 a 285.51,285.51 0 0 1 -7.673,20.879 c -0.08,0.197 -0.532,0.295 -0.447,-0.007 a 443.866,443.866 0 0 0 6.483,-26.337 c -2.881,10.657 -6.45,21.065 -10.064,31.552 -0.03,0.088 -0.218,0.122 -0.187,-0.003 a 518.975,518.975 0 0 0 5.44,-24.803 c -1.621,5.274 -3.413,10.509 -5.41,15.631 -1.531,3.927 -3.162,7.797 -4.998,11.592 -0.9,1.86 -1.78,3.727 -2.495,5.669 -0.507,1.379 -1.536,3.291 -1.635,4.754 -0.007,0.11 -0.227,0.245 -0.239,0.083 -0.199,-2.657 1.304,-5.756 2.043,-8.268 a 345.83,345.83 0 0 0 3.158,-11.543 m 43.786,-69.476 h 17.763 c 0.148,1.742 0.298,3.478 0.486,5.196 0.923,8.463 1.822,16.931 2.57,25.413 1.376,15.594 2.666,32.324 9.577,46.622 l -0.151,0.091 c -2.372,-3.876 -4.266,-7.981 -5.835,-12.221 l 0.432,3.043 c 0.574,3.974 1.268,7.92 1.969,11.873 0.732,4.123 1.132,8.348 2.456,12.334 0.032,0.097 -0.134,0.221 -0.189,0.115 -3.599,-6.895 -5.612,-15.306 -7.369,-22.85 -1.889,-8.104 -3.093,-16.365 -4.104,-24.618 -0.381,-3.1 -0.726,-6.205 -1.056,-9.311 0.527,13.959 1.559,27.72 4.732,41.503 0.045,0.193 -0.312,0.454 -0.381,0.227 -2.315,-7.615 -4.129,-15.385 -5.643,-23.199 0.693,10.93 1.277,21.868 2.033,32.794 l -0.156,0.073 c -2.71,-12.907 -4.192,-25.905 -5.279,-39.046 -0.359,-4.346 -0.849,-8.704 -1.299,-13.07 0.055,2.638 0.141,5.277 0.281,7.918 0.358,6.716 0.36,13.718 1.996,20.277 0.034,0.135 -0.212,0.318 -0.267,0.159 -2.126,-6.326 -2.669,-13.231 -3.511,-19.815 -0.933,-7.306 -1.759,-14.669 -2.064,-22.031 a 393.625,393.625 0 0 1 -0.259,-8.891 c -0.148,5.843 -0.305,11.692 -0.253,17.534 0.125,14.244 -0.653,29.447 3.305,43.271 0.045,0.155 -0.236,0.361 -0.304,0.182 -4.931,-12.798 -5.768,-27.466 -6.389,-41.037 -0.338,-7.378 -0.144,-14.725 -0.198,-22.103 l -0.005,-0.359 c -0.21,5.55 -0.606,11.095 -0.888,16.533 -0.31,5.967 -0.716,11.914 -0.79,17.89 -0.064,5.375 -0.484,10.894 0.422,16.213 l -0.156,0.074 c -1.327,-5.113 -1.373,-10.531 -1.72,-15.78 -0.386,-5.839 -0.374,-11.68 -0.241,-17.53 0.208,-9.079 -0.022,-18.342 0.485,-27.474 m -119.173,0 h 3.2 c -0.296,13.187 -0.408,26.391 -0.096,39.574 0.195,8.231 0.244,16.528 0.922,24.736 0.318,3.864 0.609,7.802 1.328,11.617 0.609,3.232 1.169,7.227 2.932,10.043 l -0.167,0.151 c -1.973,-2.347 -2.932,-5.618 -3.75,-8.529 -0.934,-3.323 -1.666,-6.757 -2.228,-10.163 -0.766,-4.638 -1.232,-9.39 -1.565,-14.148 a 513.246,513.246 0 0 1 -3.576,32.372 c -0.017,0.118 -0.282,0.232 -0.276,0.064 0.487,-14.78 0.5,-29.557 1.182,-44.333 a 4435.443,4435.443 0 0 1 2.094,-41.384 M 49.77,235.684 c 0.815,-1.778 1.66,-3.536 2.408,-5.343 1.6,-3.862 2.985,-7.778 4.305,-11.743 2.346,-7.046 4.135,-14.175 5.724,-21.422 1.75,-7.973 3.136,-16.018 4.572,-24.053 0.443,-2.477 0.845,-4.965 1.257,-7.451 h 6.404 c -0.311,2.089 -0.652,4.161 -0.995,6.196 -1.365,8.112 -2.885,16.262 -4.94,24.23 -2.067,8.016 -4.393,16.019 -7.316,23.769 -2.837,7.517 -6.318,14.675 -9.773,21.918 -0.076,0.16 -0.375,0.177 -0.285,-0.045 3.043,-7.606 6.167,-15.077 8.233,-23.026 0.29,-1.117 0.57,-2.234 0.853,-3.351 a 232.583,232.583 0 0 1 -2.62,6.569 c -1.67,4.009 -3.416,8.045 -5.66,11.774 -1.333,2.214 -2.32,5.501 -4.405,7.109 l -0.066,-0.072 c 1.275,-1.298 1.565,-3.451 2.303,-5.059"
         style="fill:#63c338;fill-opacity:1;fill-rule:nonzero;stroke:none;stroke-width:0.177392"
         transform="matrix(0.35177,0,0,-0.11243,-2.061,44.905)"
         id="path950" />
      <path
         d="m 59.462,235.148 c 1.938,-7.54 3.847,-15.086 5.702,-22.648 3.809,-15.526 6.366,-31.503 10.949,-46.828 H 87.48 c 0.13,2.784 0.119,5.578 0.025,8.371 0.239,-2.792 0.455,-5.583 0.657,-8.371 h 2.34 a 95.507,95.507 0 0 1 -0.208,3.374 c 0.132,-1.125 0.271,-2.25 0.415,-3.374 h 5.91 c 0.779,13.731 0.118,27.436 -1.222,41.138 -0.76,7.77 -1.801,15.508 -3.304,23.171 -0.776,3.966 -1.563,7.937 -2.412,11.888 -0.763,3.558 -1.944,7.005 -2.523,10.603 -0.022,0.135 -0.33,0.264 -0.316,0.073 0.241,-3.553 1.155,-6.995 1.524,-10.53 0.437,-4.18 0.788,-8.371 1.046,-12.566 0.446,-7.304 0.7,-14.619 1.118,-21.926 -0.997,6.98 -2.371,13.882 -4.013,20.744 -1.89,7.897 -4.408,15.672 -6.152,23.59 -0.04,0.179 -0.384,0.293 -0.35,0.039 0.987,-7.809 2.772,-15.537 3.886,-23.34 a 692.816,692.816 0 0 0 2.975,-23.795 c 0.824,-7.661 1.424,-15.341 2.12,-23.009 -0.57,5.19 -1.197,10.376 -2.069,15.522 -2.297,13.566 -4.938,27.022 -8.856,40.202 -0.07,0.228 -0.55,0.383 -0.47,0.051 1.802,-7.322 3.333,-14.734 4.65,-22.199 a 221.763,221.763 0 0 1 -4.115,14.929 c -2.201,7.041 -5.426,13.825 -7.215,20.976 -0.029,0.117 -0.252,0.197 -0.233,0.026 0.8,-7.359 3.08,-14.625 4.561,-21.874 0.254,-1.249 0.502,-2.499 0.75,-3.749 -2.177,6.406 -4.786,12.661 -8.023,18.716 -0.112,0.21 -0.518,0.248 -0.392,-0.061 3.647,-9.034 5.986,-18.676 7.901,-28.342 a 285.97,285.97 0 0 1 -7.672,20.879 c -0.081,0.197 -0.533,0.295 -0.448,-0.007 a 443.553,443.553 0 0 0 6.482,-26.337 c -2.88,10.657 -6.449,21.065 -10.063,31.552 -0.03,0.088 -0.217,0.122 -0.187,-0.003 a 517.748,517.748 0 0 0 5.44,-24.803 c -1.62,5.274 -3.413,10.509 -5.41,15.631 -1.53,3.927 -3.162,7.797 -4.997,11.592 -0.9,1.86 -1.781,3.727 -2.496,5.669 -0.507,1.379 -1.537,3.291 -1.635,4.754 -0.007,0.11 -0.227,0.245 -0.24,0.083 -0.197,-2.657 1.305,-5.756 2.044,-8.268 a 348.265,348.265 0 0 0 3.159,-11.543 m 43.786,-69.476 h 17.763 c 0.148,1.742 0.299,3.478 0.487,5.196 0.923,8.463 1.821,16.931 2.569,25.413 1.376,15.594 2.667,32.324 9.578,46.622 l -0.152,0.091 c -2.371,-3.876 -4.266,-7.981 -5.835,-12.221 0.145,1.014 0.287,2.028 0.433,3.043 0.573,3.974 1.266,7.92 1.969,11.873 0.732,4.123 1.13,8.348 2.456,12.334 0.032,0.097 -0.135,0.221 -0.19,0.115 -3.598,-6.895 -5.612,-15.306 -7.369,-22.85 -1.889,-8.104 -3.093,-16.365 -4.104,-24.618 -0.381,-3.1 -0.726,-6.205 -1.055,-9.311 0.527,13.959 1.558,27.72 4.731,41.503 0.045,0.193 -0.311,0.454 -0.381,0.227 -2.315,-7.615 -4.128,-15.385 -5.643,-23.199 0.693,10.93 1.278,21.868 2.033,32.794 l -0.156,0.073 c -2.71,-12.907 -4.192,-25.905 -5.278,-39.046 -0.36,-4.346 -0.85,-8.704 -1.3,-13.07 0.056,2.638 0.141,5.277 0.281,7.918 0.358,6.716 0.36,13.718 1.997,20.277 0.033,0.135 -0.214,0.318 -0.267,0.159 -2.127,-6.326 -2.67,-13.231 -3.512,-19.815 -0.933,-7.306 -1.759,-14.669 -2.065,-22.031 a 405.73,405.73 0 0 1 -0.259,-8.891 c -0.147,5.843 -0.304,11.692 -0.252,17.534 0.125,14.244 -0.653,29.447 3.305,43.271 0.045,0.155 -0.235,0.361 -0.303,0.182 -4.932,-12.798 -5.769,-27.466 -6.39,-41.037 -0.338,-7.378 -0.144,-14.725 -0.198,-22.103 l -0.005,-0.359 c -0.21,5.55 -0.606,11.095 -0.888,16.533 -0.31,5.967 -0.716,11.914 -0.79,17.89 -0.065,5.375 -0.484,10.894 0.422,16.213 l -0.156,0.074 c -1.327,-5.113 -1.373,-10.531 -1.72,-15.78 -0.386,-5.839 -0.374,-11.68 -0.241,-17.53 0.207,-9.079 -0.022,-18.342 0.485,-27.474"
         style="fill:#63c338;fill-opacity:1;fill-rule:nonzero;stroke:none;stroke-width:0.177392"
         transform="matrix(0.35177,0,0,-0.11243,-2.061,44.905)"
         id="path952" />
      <path
         d="m 136.294,165.672 c 0.025,0.688 0.041,1.377 0.071,2.066 0.312,2.588 0.606,5.149 0.972,7.614 1.439,9.698 2.805,19.47 5.109,29.008 2.274,9.415 5.863,18.3 8.933,27.462 1.525,4.549 3.315,8.959 5.156,13.385 1.527,3.673 3.595,7.555 4.315,11.483 0.032,0.171 -0.322,0.391 -0.389,0.183 -1.425,-4.417 -4.606,-8.65 -6.958,-12.631 -2.412,-4.084 -4.433,-8.327 -6.501,-12.59 a 206.185,206.185 0 0 1 -4.087,-8.934 c 1.36,6.416 3.099,12.743 5.492,18.899 0.051,0.134 -0.193,0.308 -0.267,0.16 -7.165,-14.447 -10.957,-30.544 -13.64,-46.364 -0.179,-1.058 -0.34,-2.117 -0.506,-3.177 a 322.59,322.59 0 0 1 -1.361,-7.573 c 0.531,5.34 1.229,10.671 1.958,15.969 2.415,17.535 4.383,34.864 9.839,51.786 0.044,0.134 -0.196,0.312 -0.266,0.159 -6.562,-14.291 -10.611,-29.112 -13.652,-44.418 0.23,3.194 0.475,6.387 0.731,9.579 0.299,3.724 0.662,7.444 0.95,11.169 0.258,3.323 0.248,7.107 1.12,10.331 l -0.107,0.079 c -1.506,-2.363 -1.987,-5.746 -2.658,-8.444 -0.791,-3.181 -1.396,-6.405 -2.025,-9.622 A 186.486,186.486 0 0 1 125.509,198.5 c -0.523,-7.434 -0.737,-14.865 -1.079,-22.305 -0.156,-3.368 -0.479,-6.947 -0.563,-10.523 h 12.427 m -101.01,0 h 4.96 c -1.2,12.962 -2.815,25.825 -5.404,38.631 -3.2,15.831 -9.534,31.276 -14.99,46.437 -0.024,0.069 -0.175,0.098 -0.149,-0.002 3.944,-15.061 7.367,-30.406 9.597,-45.823 1.897,-13.123 3.118,-26.317 5.986,-39.243 m -2.317,71.354 c 1.523,-3.892 3.197,-7.724 4.675,-11.634 2.777,-7.356 5.052,-14.775 7.06,-22.359 a 150.09,150.09 0 0 1 -1.267,3.881 c -2.277,6.617 -5.375,13.009 -7.363,19.711 -0.05,0.169 -0.398,0.296 -0.352,0.039 1.093,-6.073 3.086,-11.96 4.385,-18.008 -3.05,8.401 -6.602,16.614 -9.792,25.009 -0.07,0.186 -0.482,0.27 -0.41,-0.007 3.5,-13.586 6.22,-27.31 9.04,-41.063 1.813,-8.839 2.836,-17.947 4.36,-26.923 h 16.692 a 87.729,87.729 0 0 1 -0.301,2.536 l 0.086,-0.049 c 0.123,-0.826 0.24,-1.656 0.36,-2.487 h 7.617 a 433.155,433.155 0 0 1 -0.622,3.64 c -1.707,9.81 -4.082,19.467 -6.887,29.019 -5.328,18.142 -12.047,35.898 -21.316,52.424 -0.157,0.281 -0.733,0.323 -0.535,-0.084 4.282,-8.785 7.142,-18.152 9.533,-27.662 -0.165,0.348 -0.325,0.698 -0.493,1.044 -2.613,5.374 -5.774,10.427 -8.45,15.758 -0.109,0.216 -0.516,0.245 -0.393,-0.061 2.286,-5.655 4.899,-10.948 6.614,-16.844 a 1384.12,1384.12 0 0 1 2.747,-9.291 142.028,142.028 0 0 1 -6.245,13.562 c -1.932,3.659 -3.896,7.29 -6.411,10.589 -2.312,3.033 -4.911,5.942 -7.102,9.05 -0.091,0.13 -0.36,0.11 -0.263,-0.083 1.66,-3.29 3.677,-6.241 5.033,-9.707"
         style="fill:#63c338;fill-opacity:1;fill-rule:nonzero;stroke:none;stroke-width:0.177392"
         transform="matrix(0.35177,0,0,-0.11243,-2.061,44.905)"
         id="path954" />
      <path
         d="m 15.887,243.794 c 0.99,-4.302 1.536,-8.718 2.211,-13.078 1.42,-9.17 2.82,-18.352 4.363,-27.502 1.754,-10.393 3.574,-20.769 5.198,-31.175 0.177,-2.125 0.378,-4.247 0.594,-6.367 h 4.163 c -0.452,11.929 -1.987,23.765 -3.92,35.652 -1.513,9.302 -3.289,18.511 -5.525,27.666 -1.11,4.546 -2.602,9.007 -4.084,13.443 -0.65,1.946 -1.739,3.814 -2.586,5.683 -0.558,1.235 -2.22,3.987 -2.184,5.252 0.005,0.159 -0.28,0.32 -0.319,0.112 -0.186,-1.005 0.153,-1.83 0.496,-2.768 0.794,-2.171 1.075,-4.664 1.593,-6.918 m 132.77,-78.122 c -0.036,0.645 -0.071,1.288 -0.1,1.926 -0.24,5.177 -0.046,10.382 0.161,15.572 a 171.36,171.36 0 0 1 0.637,-17.498 h 14.615 c 0.077,2.051 0.126,4.104 0.152,6.16 a 96.187,96.187 0 0 1 1.02,-6.16 h 7.547 c -0.939,7.544 -2.357,15.043 -3.282,22.606 -1.487,12.175 -2.786,24.323 -3.759,36.55 -0.015,0.181 -0.276,0.029 -0.286,-0.094 -0.57,-7.383 -1.284,-14.832 -1.752,-22.279 -0.167,6.129 -0.38,12.264 -0.774,18.375 -0.507,7.888 -2.117,15.605 -2.891,23.453 -0.024,0.241 -0.371,0.04 -0.381,-0.125 -0.482,-7.638 -0.064,-15.293 -0.177,-22.937 -0.123,-8.306 -0.575,-16.601 -0.616,-24.91 -0.041,-8.713 -0.39,-17.505 -0.472,-26.283 -0.203,5.313 -0.407,10.626 -0.376,15.937 0.067,11.481 0.402,23.019 -0.453,34.478 -0.009,0.121 -0.184,0.02 -0.191,-0.062 -0.799,-9.843 -2.033,-19.633 -2.638,-29.487 0.025,1.213 0.047,2.425 0.079,3.638 0.183,7.019 0.624,14.031 0.954,21.044 0.317,6.732 -0.076,13.67 1.074,20.326 0.04,0.227 -0.273,0.118 -0.323,-0.024 -4.631,-13.406 -6.319,-28.402 -7.286,-42.476 -0.051,-0.738 -0.093,-1.478 -0.136,-2.216 0.399,12.831 0.978,25.95 3.208,38.573 0.045,0.256 -0.315,0.139 -0.369,-0.027 -4.053,-12.561 -6.61,-25.539 -8.229,-38.623 0.004,5.861 0.207,11.708 0.372,17.611 0.004,0.128 -0.157,0.074 -0.184,-0.014 -2.971,-9.912 -5.164,-19.542 -5.265,-29.956 -0.042,-4.3 0.005,-8.695 0.286,-13.078 h 9.835 m 26.744,0 h 4.938 c -1.167,5.646 -2.61,11.263 -3.548,16.881 -0.873,5.223 -1.77,10.441 -2.644,15.664 -0.796,4.766 -1.801,9.71 -1.884,14.546 -0.004,0.269 -0.411,0.045 -0.428,-0.14 -0.309,-3.293 -0.353,-6.628 -0.235,-9.974 a 245.734,245.734 0 0 0 -0.652,3.645 c -0.854,5.026 -2.202,10.098 -2.746,15.152 -0.016,0.149 -0.234,0.027 -0.238,-0.078 -0.366,-10.234 1.035,-20.809 2.476,-30.922 1.143,-8.02 2.305,-16.789 4.961,-24.774 m 83.896,0 c 0.806,16.636 0.118,33.29 0.088,49.934 -0.014,8.042 -0.174,16.087 -0.246,24.128 -0.067,7.484 0.368,15.044 0.108,22.507 -0.006,0.179 -0.276,0.03 -0.286,-0.093 -0.573,-7.284 -1.915,-14.529 -2.469,-21.835 -0.645,-8.483 -0.875,-16.985 -0.983,-25.492 a 536.15,536.15 0 0 1 -0.021,-11.2 c -0.57,15.383 -0.326,30.762 -0.779,46.138 -0.005,0.205 -0.326,0.04 -0.333,-0.109 -0.701,-15.391 -2.136,-30.67 -2.058,-46.106 0.044,-8.635 0.309,-17.308 0.853,-25.96 -0.537,5.493 -1.25,10.983 -1.7,16.475 -0.574,6.978 -1.35,13.942 -1.832,20.927 -0.434,6.29 -0.014,13.095 -1.124,19.284 -0.03,0.165 -0.24,0.005 -0.239,-0.108 0.046,-3.219 -0.706,-6.585 -0.975,-9.796 -0.288,-3.456 -0.506,-6.921 -0.722,-10.382 a 169.584,169.584 0 0 1 -0.016,-20.552 c 0.225,-3.8 0.433,-7.637 0.69,-11.481 -0.854,7.001 -1.551,13.991 -1.943,21.062 -0.02,0.36 -0.553,0.061 -0.571,-0.187 -0.029,-0.379 -0.064,-0.757 -0.093,-1.135 a 369.45,369.45 0 0 0 1.513,29.381 c 0.019,0.213 -0.258,0.085 -0.285,-0.058 A 399.302,399.302 0 0 1 240.7,194.309 c -0.016,7.562 0.294,15.089 0.525,22.688 0.008,0.246 -0.314,0.11 -0.333,-0.067 -1.193,-10.759 -2.798,-21.314 -2.714,-32.185 0.048,-6.349 0.259,-12.737 0.894,-19.073 h 20.225"
         style="fill:#63c338;fill-opacity:1;fill-rule:nonzero;stroke:none;stroke-width:0.177392"
         transform="matrix(0.35177,0,0,-0.11243,-2.061,44.905)"
         id="path956" />
      <path
         d="m 12.11,205.675 c 1.008,-13.334 1.545,-26.71 3.015,-40.003 h 18.35 c 0.011,4.745 -0.21,9.494 -0.539,14.211 -0.668,9.601 -2.805,18.809 -4.593,28.224 -0.029,0.155 -0.322,0.252 -0.298,0.036 0.723,-6.691 1.51,-13.314 2.013,-19.991 a 353.52,353.52 0 0 1 -7.074,32.046 c -0.034,0.125 -0.288,0.219 -0.256,0.032 a 327.793,327.793 0 0 0 3.343,-25.831 c -0.053,0.332 -0.11,0.664 -0.16,0.996 -0.034,0.217 -0.524,0.445 -0.517,0.126 0.137,-6.269 -10e-4,-12.486 -0.277,-18.724 -0.035,3.41 -0.113,6.812 -0.174,10.181 a 150.021,150.021 0 0 1 -1.419,18.14 c -0.428,3.04 -0.856,6.084 -1.347,9.115 -0.455,2.816 -1.35,5.736 -1.529,8.58 -0.006,0.1 -0.202,0.227 -0.218,0.079 -0.557,-5.538 0.279,-11.517 0.325,-17.098 0.052,-6.199 -0.157,-12.399 -0.187,-18.598 -0.024,-4.878 -0.278,-9.773 -0.377,-14.658 a 398.799,398.799 0 0 1 -1.02,22.973 c -0.985,13.63 -3.295,27.019 -4.966,40.557 -0.016,0.13 -0.309,0.254 -0.3,0.073 0.65,-13.603 1.916,-27.161 2.464,-40.779 -0.229,3.296 -0.487,6.59 -0.785,9.885 -0.675,7.502 -1.459,14.991 -2.607,22.434 -0.99,6.412 -2.668,12.715 -3.672,19.104 -0.016,0.11 -0.265,0.222 -0.258,0.064 0.28,-6.606 1.18,-13.249 1.632,-19.859 0.485,-7.104 0.895,-14.215 1.43,-21.315"
         style="fill:#63c338;fill-opacity:1;fill-rule:nonzero;stroke:none;stroke-width:0.177392"
         transform="matrix(0.35177,0,0,-0.11243,-2.061,44.905)"
         id="path958" />
      <path
         d="m 134.244,183.672 -0.1,0.003 c -0.006,0.46 -0.019,0.919 -0.021,1.379 0.034,-0.461 0.074,-0.922 0.121,-1.382"
         style="fill:#9ed521;fill-opacity:1;fill-rule:nonzero;stroke:none;stroke-width:0.177392"
         transform="matrix(0.35177,0,0,-0.11243,-2.061,44.905)"
         id="path960" />
      <path
         d="m 238.226,185.537 c -0.271,0.446 -0.532,0.892 -0.823,1.336 0.1,2.385 0.216,4.776 0.372,7.16 0.447,-2.408 0.727,-4.832 0.913,-7.271 -0.158,-0.409 -0.308,-0.817 -0.462,-1.225 z m -33.619,13.244 c -0.14,-4.828 -0.336,-9.66 -0.65,-14.48 -0.483,3.604 -1.066,7.087 -1.812,10.488 a 70.198,70.198 0 0 0 2.579,6.342 69.836,69.836 0 0 1 -0.117,-2.35 z m -11.95,-5.078 a 56.741,56.741 0 0 1 -0.136,1.75 c 0.143,-0.263 0.273,-0.531 0.408,-0.798 -0.09,-0.317 -0.184,-0.634 -0.272,-0.952 z m -15.131,-0.061 c 0.095,1.702 0.169,3.404 0.316,5.095 0.031,-0.254 0.062,-0.498 0.096,-0.721 0.35,-2.311 0.617,-4.637 0.859,-6.967 -0.383,0.889 -0.82,1.745 -1.271,2.593 z m -1.899,3.586 a 33.02,33.02 0 0 0 -0.78,1.617 c -0.068,0.155 -0.278,-0.053 -0.241,-0.18 0.24,-0.817 0.445,-1.638 0.636,-2.459 -0.35,-0.921 -0.714,-1.844 -1.043,-2.765 0.204,5.435 0.427,10.935 0.949,16.353 1.477,-1.616 2.022,-4.924 2.352,-7.865 a 262.166,262.166 0 0 1 -1.873,-4.701 z m -57.493,-17.441 c -0.271,0.446 -0.532,0.892 -0.823,1.336 0.1,2.385 0.216,4.776 0.373,7.16 0.446,-2.408 0.727,-4.832 0.912,-7.271 -0.158,-0.409 -0.307,-0.817 -0.462,-1.225 z m -33.618,13.244 c -0.141,-4.828 -0.337,-9.66 -0.651,-14.48 -0.483,3.604 -1.066,7.087 -1.812,10.488 a 70.462,70.462 0 0 0 2.58,6.342 68.518,68.518 0 0 1 -0.117,-2.35 z m -11.95,-5.078 a 60.398,60.398 0 0 1 -0.136,1.75 c 0.142,-0.263 0.273,-0.531 0.408,-0.798 -0.09,-0.317 -0.185,-0.634 -0.273,-0.952 z m -15.13,-0.061 c 0.093,1.702 0.167,3.404 0.314,5.095 0.031,-0.254 0.063,-0.498 0.096,-0.721 0.35,-2.311 0.617,-4.637 0.86,-6.967 a 35.47,35.47 0 0 1 -1.27,2.593 z m -1.9,3.586 c -0.27,0.531 -0.538,1.065 -0.78,1.617 -0.068,0.155 -0.279,-0.053 -0.242,-0.18 0.24,-0.817 0.445,-1.638 0.636,-2.459 -0.35,-0.921 -0.714,-1.844 -1.043,-2.765 0.204,5.435 0.427,10.935 0.95,16.353 1.476,-1.616 2.021,-4.924 2.352,-7.865 a 257.764,257.764 0 0 1 -1.873,-4.701 z m 206.187,4.624 c -1.392,-2.021 -2.64,-4.103 -3.693,-6.325 0.107,5.958 0.356,11.913 0.883,17.844 0.022,0.245 -0.275,0.087 -0.31,-0.065 -1.124,-4.769 -2.609,-9.275 -3.867,-13.853 -0.36,6.106 -1.579,12.043 -4.412,17.643 -0.07,0.136 -0.279,-0.033 -0.25,-0.151 0.96,-4.008 -0.132,-8.83 -0.512,-12.929 -0.014,-0.149 -0.022,-0.298 -0.035,-0.447 -0.856,3.52 -1.958,6.847 -3.203,9.72 -0.079,0.183 -0.359,-0.045 -0.324,-0.196 1.045,-4.542 1.007,-9.597 0.77,-14.461 -0.743,3.816 -1.904,7.526 -3.784,10.921 -1.14,2.06 -3.612,5.545 -5.795,6.39 -0.09,0.035 -0.227,-0.118 -0.145,-0.196 2.407,-2.28 2.498,-8.852 2.971,-11.981 0.302,-2.002 0.538,-4.017 0.755,-6.035 l -0.156,-0.385 c -0.801,1.747 -1.756,3.399 -2.647,5.106 0.212,2.658 0.484,5.303 0.85,7.916 0.027,0.198 -0.238,0.11 -0.275,-0.021 -0.553,-1.914 -1.124,-3.809 -1.693,-5.698 -0.086,-0.003 -0.194,-0.14 -0.166,-0.234 l 0.045,-0.168 c -1.36,-4.513 -2.702,-8.992 -3.736,-13.587 0.005,5.414 -0.009,10.829 -0.038,16.221 0,0.12 -0.169,0.013 -0.181,-0.062 -0.611,-3.971 -2.52,-7.563 -3.298,-11.513 a 91.175,91.175 0 0 1 -0.534,-3.034 c -0.1,8.821 -0.044,17.662 0.837,26.43 0.019,0.196 -0.242,0.115 -0.275,-0.021 -1.963,-8.077 -3.605,-15.848 -4.574,-23.939 -0.958,6.259 -2.513,12.391 -4.03,18.663 -0.047,0.196 -0.298,0.016 -0.283,-0.133 0.762,-7.678 0.592,-15.514 0.185,-23.295 -0.22,-0.024 -0.454,-0.055 -0.679,-0.082 -0.248,2.459 -0.46,4.921 -0.572,7.392 -0.014,0.317 -0.476,0.055 -0.49,-0.166 -0.167,-2.544 -0.606,-5.026 -1.064,-7.511 -0.399,-0.06 -0.799,-0.119 -1.211,-0.186 -0.073,10.294 -1.182,21.073 0.454,31.122 0.044,0.268 -0.324,0.15 -0.375,-0.028 -2.368,-8.193 -3.863,-16.265 -4.837,-24.542 -0.75,4.875 -1.467,9.752 -1.716,14.626 -0.014,0.265 -0.406,0.05 -0.413,-0.139 -0.093,-2.358 -0.23,-4.703 -0.379,-7.042 -0.6,6.207 -1.898,12.411 -4.298,17.842 -0.063,0.143 -0.267,-0.039 -0.249,-0.152 0.612,-3.951 0.171,-8.439 -0.143,-12.678 a 76.514,76.514 0 0 1 -3.549,-4.287 c -1.499,5.736 -3.562,11.269 -6.551,16.783 -0.079,0.145 -0.293,-0.052 -0.241,-0.181 2.51,-6.28 3.976,-12.701 4.934,-19.196 a 48.314,48.314 0 0 1 -1.325,-2.06 26.332,26.332 0 0 1 -1.974,2.144 c 0.145,3.918 0.363,7.832 0.709,11.735 0.021,0.245 -0.274,0.087 -0.311,-0.065 -0.785,-3.331 -1.745,-6.533 -2.682,-9.722 -0.581,0.425 -1.166,0.801 -1.736,1.089 -0.653,4.271 -1.842,8.434 -3.86,12.423 -0.069,0.136 -0.278,-0.033 -0.25,-0.151 0.961,-4.008 -0.132,-8.83 -0.512,-12.929 -0.014,-0.149 -0.023,-0.298 -0.035,-0.447 -0.856,3.52 -1.958,6.847 -3.203,9.72 -0.079,0.183 -0.359,-0.045 -0.325,-0.196 1.046,-4.542 1.009,-9.597 0.771,-14.461 -0.743,3.816 -1.903,7.526 -3.783,10.921 -1.129,2.037 -3.556,5.462 -5.721,6.356 0.164,1.662 0.355,3.317 0.584,4.959 0.028,0.198 -0.237,0.11 -0.274,-0.021 -1.912,-6.627 -4.053,-13.033 -5.55,-19.687 0.005,5.414 -0.009,10.829 -0.038,16.221 -0.001,0.12 -0.17,0.013 -0.181,-0.061 -0.611,-3.972 -2.52,-7.564 -3.299,-11.514 a 93.829,93.829 0 0 1 -0.533,-3.034 c -0.101,8.821 -0.044,17.662 0.837,26.43 0.019,0.196 -0.242,0.115 -0.275,-0.021 -1.963,-8.077 -3.605,-15.848 -4.575,-23.939 -0.957,6.259 -2.512,12.392 -4.029,18.663 -0.047,0.196 -0.298,0.016 -0.283,-0.133 0.9,-9.069 0.504,-18.359 -0.053,-27.518 -0.431,3.836 -0.839,7.673 -1.013,11.533 -0.014,0.317 -0.477,0.055 -0.491,-0.166 -0.265,-4.048 -1.222,-7.94 -1.84,-11.936 a 68.006,68.006 0 0 1 -0.485,-3.994 c 0.002,1.769 0.016,3.541 0.043,5.315 0.174,11.158 -1.329,23.038 0.462,34.04 0.044,0.268 -0.324,0.15 -0.375,-0.028 -2.369,-8.193 -3.863,-16.265 -4.838,-24.542 -0.749,4.875 -1.466,9.752 -1.715,14.626 -0.014,0.265 -0.406,0.05 -0.413,-0.139 a 291.43,291.43 0 0 0 -0.379,-7.042 c -0.6,6.207 -1.898,12.411 -4.298,17.842 -0.064,0.143 -0.267,-0.039 -0.25,-0.152 0.805,-5.193 -0.212,-11.316 -0.365,-16.58 -0.142,-4.828 -0.338,-9.66 -0.652,-14.48 -1.483,11.066 -3.872,21.001 -9.225,30.878 -0.079,0.145 -0.293,-0.052 -0.241,-0.181 3.151,-7.887 4.672,-15.993 5.584,-24.192 -0.216,0.387 -0.433,0.776 -0.669,1.153 -1.635,2.62 -6.053,7.195 -9.168,7.588 l 0.046,0.076 -0.232,0.268 c -0.115,0.132 -0.35,-0.134 -0.242,-0.271 1.331,-1.702 2.427,-3.523 3.351,-5.425 0.677,-3.851 -0.286,-8.329 -0.643,-12.179 -0.014,-0.149 -0.022,-0.298 -0.035,-0.447 -0.855,3.52 -1.958,6.847 -3.203,9.72 -0.079,0.183 -0.359,-0.045 -0.324,-0.196 1.045,-4.542 1.008,-9.597 0.77,-14.461 -0.743,3.816 -1.904,7.526 -3.783,10.921 -1.141,2.06 -3.613,5.545 -5.796,6.39 -0.09,0.035 -0.227,-0.118 -0.144,-0.196 2.406,-2.28 2.498,-8.852 2.97,-11.981 0.303,-2.002 0.539,-4.017 0.755,-6.035 l -0.156,-0.385 c -0.801,1.747 -1.755,3.399 -2.647,5.106 0.212,2.658 0.484,5.303 0.85,7.916 0.028,0.198 -0.238,0.11 -0.275,-0.021 -0.552,-1.914 -1.123,-3.809 -1.692,-5.698 -0.087,-0.003 -0.194,-0.14 -0.167,-0.234 l 0.046,-0.168 c -1.361,-4.513 -2.702,-8.992 -3.737,-13.587 0.005,5.414 -0.008,10.829 -0.038,16.221 0,0.12 -0.169,0.013 -0.18,-0.062 -0.612,-3.971 -2.521,-7.563 -3.299,-11.513 a 91.166,91.166 0 0 1 -0.533,-3.034 c -0.101,8.821 -0.044,17.662 0.836,26.43 0.02,0.196 -0.242,0.115 -0.275,-0.021 -1.963,-8.077 -3.604,-15.848 -4.574,-23.939 -0.958,6.259 -2.512,12.391 -4.029,18.663 -0.047,0.196 -0.299,0.016 -0.284,-0.133 0.9,-9.069 0.505,-18.359 -0.053,-27.518 -0.43,3.836 -0.838,7.673 -1.012,11.533 -0.014,0.317 -0.477,0.055 -0.492,-0.166 -0.264,-4.048 -1.221,-7.94 -1.84,-11.936 a 67.582,67.582 0 0 1 -0.484,-3.994 c 0.001,1.769 0.015,3.541 0.042,5.315 0.174,11.158 -1.328,23.038 0.463,34.04 0.043,0.268 -0.324,0.15 -0.376,-0.028 -2.368,-8.193 -3.863,-16.265 -4.837,-24.542 -0.75,4.875 -1.467,9.752 -1.716,14.626 -0.014,0.265 -0.406,0.05 -0.413,-0.139 a 292.18,292.18 0 0 0 -0.379,-7.042 c -0.6,6.207 -1.897,12.411 -4.297,17.842 -0.064,0.143 -0.268,-0.039 -0.25,-0.152 0.612,-3.951 0.171,-8.439 -0.143,-12.678 a 76.853,76.853 0 0 1 -3.549,-4.287 c -1.499,5.736 -3.562,11.269 -6.55,16.783 -0.08,0.145 -0.293,-0.052 -0.242,-0.181 2.51,-6.28 3.977,-12.701 4.934,-19.196 a 48.207,48.207 0 0 1 -1.325,-2.06 26.246,26.246 0 0 1 -1.974,2.144 c 0.145,3.918 0.363,7.832 0.71,11.735 0.02,0.245 -0.275,0.087 -0.311,-0.065 -0.786,-3.331 -1.746,-6.533 -2.683,-9.722 -0.581,0.425 -1.165,0.801 -1.736,1.089 -0.653,4.271 -1.842,8.434 -3.86,12.423 -0.069,0.136 -0.278,-0.033 -0.25,-0.151 0.96,-4.008 -0.132,-8.83 -0.512,-12.929 -0.014,-0.149 -0.022,-0.298 -0.035,-0.447 -0.856,3.52 -1.958,6.847 -3.203,9.72 -0.079,0.183 -0.359,-0.045 -0.325,-0.196 1.047,-4.542 1.009,-9.597 0.772,-14.461 -0.744,3.816 -1.904,7.526 -3.784,10.921 -1.128,2.037 -3.556,5.462 -5.72,6.356 0.164,1.662 0.354,3.317 0.584,4.959 0.027,0.198 -0.238,0.11 -0.275,-0.021 -1.912,-6.627 -4.053,-13.033 -5.55,-19.687 0.005,5.414 -0.009,10.829 -0.038,16.221 0,0.12 -0.169,0.013 -0.18,-0.061 -0.612,-3.972 -2.521,-7.564 -3.3,-11.514 a 93.286,93.286 0 0 1 -0.533,-3.034 c -0.1,8.821 -0.044,17.662 0.837,26.43 0.02,0.196 -0.242,0.115 -0.275,-0.021 -1.963,-8.077 -3.605,-15.848 -4.575,-23.939 -0.957,6.259 -2.512,12.392 -4.028,18.663 -0.048,0.196 -0.299,0.016 -0.284,-0.133 0.9,-9.069 0.505,-18.359 -0.053,-27.518 -0.43,3.836 -0.839,7.673 -1.012,11.533 -0.015,0.317 -0.477,0.055 -0.492,-0.166 -0.265,-4.048 -1.221,-7.94 -1.84,-11.936 a 67.164,67.164 0 0 1 -0.484,-3.994 360,360 0 0 0 0.043,5.315 c 0.173,11.158 -1.33,23.038 0.461,34.04 0.044,0.268 -0.324,0.15 -0.375,-0.028 -2.368,-8.193 -3.863,-16.265 -4.838,-24.542 -0.749,4.875 -1.466,9.752 -1.715,14.626 -0.014,0.265 -0.405,0.05 -0.414,-0.139 -0.092,-2.358 -0.23,-4.702 -0.378,-7.042 -0.6,6.207 -1.898,12.411 -4.298,17.842 -0.064,0.143 -0.266,-0.039 -0.25,-0.152 0.805,-5.193 -0.211,-11.316 -0.365,-16.58 -0.141,-4.828 -0.338,-9.66 -0.651,-14.48 -1.484,11.066 -3.873,21.001 -9.226,30.878 -0.079,0.145 -0.292,-0.052 -0.24,-0.181 3.15,-7.887 4.671,-15.993 5.583,-24.192 -0.216,0.387 -0.433,0.776 -0.668,1.153 -1.635,2.62 -6.054,7.195 -9.168,7.588 l 0.046,0.076 -0.233,0.268 c -0.115,0.132 -0.35,-0.134 -0.242,-0.271 5.639,-7.209 7.166,-16.48 8.435,-25.424 0.585,-4.124 0.575,-8.741 0.893,-13.274 H 260.76 c 0.202,7.833 0.434,26.584 0.963,30.43"
         style="fill:#419d3a;fill-opacity:1;fill-rule:nonzero;stroke:none;stroke-width:0.177392"
         transform="matrix(0.35177,0,0,-0.11243,-2.061,44.905)"
         id="path962" />
      <path
         d="m 134.243,183.839 -0.049,-0.167 c -0.018,0.298 -0.048,0.594 -0.071,0.892 0.04,-0.242 0.082,-0.483 0.12,-0.725"
         style="fill:#419d3a;fill-opacity:1;fill-rule:nonzero;stroke:none;stroke-width:0.177392"
         transform="matrix(0.35177,0,0,-0.11243,-2.061,44.905)"
         id="path964" />
      <path
         d="m 134.16,183.746 0.026,0.243 c 0.006,-0.106 0.015,-0.211 0.021,-0.317 l -0.047,0.074"
         style="fill:#419d3a;fill-opacity:1;fill-rule:nonzero;stroke:none;stroke-width:0.177392"
         transform="matrix(0.35177,0,0,-0.11243,-2.061,44.905)"
         id="path966" />
    </g>
  </g>
  <metadata
     id="metadata64">
    <rdf:RDF>
      <cc:Work
         rdf:about="">
        <dc:format>image/svg+xml</dc:format>
        <dc:type
           rdf:resource="http://purl.org/dc/dcmitype/StillImage" />
        <dc:title></dc:title>
      </cc:Work>
    </rdf:RDF>
  </metadata>
  <defs
     id="defs62" />
  <sodipodi:namedview
     inkscape:current-layer="svg58"
     inkscape:window-maximized="1"
     inkscape:window-y="-8"
     inkscape:window-x="-8"
     inkscape:cy="49.660999"
     inkscape:cx="327.71451"
     inkscape:zoom="1.6888806"
     showgrid="false"
     id="namedview60"
     inkscape:window-height="1017"
     inkscape:window-width="1920"
     inkscape:pageshadow="2"
     inkscape:pageopacity="0"
     guidetolerance="10"
     gridtolerance="10"
     objecttolerance="10"
     borderopacity="1"
     bordercolor="#666666"
     pagecolor="#ffffff" />
</svg>
